<svg width="317" height="97" viewBox="0 0 317 97" fill="none" xmlns="http://www.w3.org/2000/svg">
<g filter="url(#filter0_d_2319_3739)">
<path d="M159.483 48.5613C159.483 51.5796 154.023 53.4019 150.29 53.4019C146.557 53.4019 143.53 51.5796 143.53 48.5613C143.53 45.5429 146.016 43.5645 149.749 43.5645C153.482 43.5645 159.483 45.5429 159.483 48.5613Z" fill="#BE6900"/>
<path d="M155.655 47.5C155.655 68.763 139.176 86 118.848 86C98.5194 86 82.04 68.763 82.04 47.5C82.04 26.237 98.5194 9 118.848 9C139.176 9 155.655 26.237 155.655 47.5Z" fill="#FF9C24"/>
<path d="M126.04 47.4997C126.04 64.5568 116.379 78.3843 104.463 78.3843C92.5462 78.3843 83.4648 64.5677 83.4648 47.5106C83.4648 30.4535 93.1252 16.626 105.042 16.626C116.958 16.626 126.04 30.4426 126.04 47.4997Z" fill="#FF7A32"/>
<path d="M126.04 47.4997C126.04 64.5568 116.379 78.3843 104.463 78.3843C92.5462 78.3843 83.4648 64.5677 83.4648 47.5106M126.04 47.4997C126.04 30.4426 116.958 16.626 105.042 16.626C93.1252 16.626 83.4648 30.4535 83.4648 47.5106M126.04 47.4997L83.4648 47.5106M91.754 22.5382L115.798 73.7845M114.338 20.0321L93.6743 74.2525" stroke="#FFF5E5" stroke-width="4"/>
</g>
<path d="M25.2315 85.197C22.7728 85.197 20.2475 84.8959 17.6558 84.2936C15.1306 83.6913 12.6054 82.8549 10.0802 81.7842C9.41562 81.4496 8.95045 81.0146 8.68463 80.4793C8.41882 80.0109 8.28591 79.5424 8.28591 79.074C8.28591 78.6725 8.35237 78.271 8.48527 77.8695C8.88399 76.7319 9.74789 76.1631 11.077 76.1631C11.5421 76.1631 12.0073 76.2635 12.4725 76.4642C14.599 77.3342 16.7255 78.0033 18.852 78.4718C20.9785 79.0071 23.0718 79.2748 25.1319 79.2748C30.4481 79.2748 35.3325 77.7691 39.7848 74.7578C44.3701 71.7466 47.7925 67.8988 50.0519 63.2146C52.3113 58.5303 53.441 53.4446 53.441 47.9573C53.441 43.6746 52.8097 39.4923 51.5471 35.4103C50.6832 32.4659 49.5535 29.7892 48.158 27.3802C46.8289 24.9711 45.5663 22.9636 44.3701 21.3576C43.174 19.6846 42.3433 18.5805 41.8781 18.0452C39.2864 18.0452 36.3293 18.1121 33.0066 18.2459C29.6839 18.3128 26.2616 18.4467 22.7395 18.6474C19.2175 18.7813 15.7619 18.9486 12.3728 19.1493C9.05013 19.3501 6.0265 19.5508 3.30191 19.7516C2.23865 19.8185 1.40798 19.5508 0.809901 18.9486C0.278274 18.2794 0.0124601 17.6437 0.0124601 17.0414C-0.0539935 16.3053 0.145367 15.6027 0.610541 14.9335C1.07571 14.2643 1.77348 13.8963 2.70382 13.8294C10.4124 13.294 17.4233 12.8925 23.7363 12.6248C30.0494 12.2903 36.2296 12.123 42.2768 12.123C47.0615 12.123 51.9126 12.2233 56.8301 12.4241C61.7477 12.6248 66.9643 12.9929 72.4799 13.5282C73.6096 13.729 74.3406 14.1639 74.6729 14.8331C75.0716 15.4354 75.2045 16.1046 75.0716 16.8407C74.8722 18.8482 73.809 19.7516 71.8818 19.5508C70.287 19.417 68.4263 19.2831 66.2998 19.1493C64.1732 19.0155 62.0135 18.8816 59.8205 18.7478C57.6276 18.5471 55.6008 18.4132 53.7401 18.3463C51.8794 18.2125 50.4506 18.1455 49.4538 18.1455C53.8397 24.235 56.7969 30.4918 58.3253 36.9159C59.1228 40.5295 59.5215 44.1096 59.5215 47.6562C59.5215 54.5487 58.0263 60.8724 55.0359 66.6274C52.0455 72.3823 47.6928 77.033 41.9778 80.5797C36.728 83.6579 31.1459 85.197 25.2315 85.197Z" fill="black"/>
<path d="M204.993 85.7992C204.129 85.7992 203.398 85.4981 202.8 84.8959C202.268 84.3605 202.003 83.6579 202.003 82.788V65.0213C193.696 64.2852 186.685 61.3409 180.97 56.1882C175.255 51.0355 171.268 44.21 169.008 35.7114C168.543 33.9716 168.211 32.0979 168.012 30.0903C167.812 28.0159 167.713 25.9414 167.713 23.867C167.713 22.261 167.779 20.6884 167.912 19.1493C168.045 17.5433 168.211 16.0042 168.41 14.532C168.543 13.5951 168.876 12.926 169.407 12.5245C170.005 12.123 170.637 11.9222 171.301 11.9222C172.298 11.9222 173.095 12.2233 173.693 12.8256C174.292 13.3609 174.524 14.1974 174.391 15.335C174.192 16.6734 174.059 18.0452 173.992 19.4504C173.926 20.7888 173.893 22.1271 173.893 23.4655C173.893 27.4136 174.292 31.161 175.089 34.7077C176.484 39.7934 178.611 44.1765 181.468 47.857C184.392 51.5374 187.881 54.3814 191.935 56.389C195.989 58.3296 200.441 59.2999 205.292 59.2999C210.21 59.2999 214.662 58.2961 218.649 56.2886C222.703 54.2141 226.125 51.3367 228.916 47.6562C231.774 43.9088 233.834 39.5257 235.096 34.5069C235.495 32.834 235.761 31.1945 235.894 29.5885C236.093 27.9824 236.193 26.3764 236.193 24.7704C236.193 23.1644 236.126 21.5918 235.994 20.0527C235.861 18.4467 235.661 16.8741 235.395 15.335C235.329 14.0636 235.595 13.1936 236.193 12.7252C236.857 12.1899 237.555 11.9222 238.286 11.9222C238.951 11.9222 239.582 12.1564 240.18 12.6248C240.778 13.0263 241.177 13.6286 241.376 14.4316C241.642 16.1046 241.808 17.811 241.875 19.5508C242.008 21.2238 242.074 22.9302 242.074 24.67C242.074 26.5437 241.974 28.4174 241.775 30.2911C241.642 32.0979 241.376 33.8712 240.978 35.611C238.917 44.2434 234.964 51.1359 229.116 56.2886C223.334 61.4412 216.29 64.3522 207.983 65.0213V82.788C207.983 83.8586 207.651 84.6282 206.987 85.0966C206.389 85.565 205.724 85.7992 204.993 85.7992Z" fill="black"/>
<path d="M277.626 85.8996C276.563 85.7658 275.799 85.3643 275.334 84.6951C274.935 84.0259 274.769 83.3568 274.835 82.6876C274.835 81.8846 275.101 81.2154 275.633 80.6801C276.164 80.1447 276.929 79.877 277.925 79.877C278.922 79.944 279.919 79.9774 280.916 79.9774C281.913 80.0443 282.909 80.0778 283.906 80.0778C287.893 80.0778 291.415 79.7767 294.472 79.1744C297.596 78.5722 300.054 77.5015 301.849 75.9624C303.643 74.4233 304.54 72.2484 304.54 69.4379C304.54 67.5642 304.042 66.2258 303.045 65.4228C302.114 64.5529 300.852 64.0176 299.257 63.8168C297.729 63.5491 296.034 63.4153 294.173 63.4153C291.714 63.4153 289.189 63.5491 286.598 63.8168C284.072 64.0176 281.447 64.1179 278.723 64.1179C273.141 64.1179 268.09 63.1476 263.571 61.207C259.119 59.2664 255.564 56.4559 252.906 52.7754C250.314 49.028 249.018 44.5111 249.018 39.2246C249.018 34.6073 249.948 30.2911 251.809 26.276C253.67 22.1941 256.228 18.6474 259.485 15.6361C262.741 12.6248 266.495 10.2827 270.748 8.60978C275.001 6.86993 279.52 6 284.305 6C289.555 6 294.871 6.9703 300.254 8.91091C305.636 10.8515 310.82 13.6621 315.804 17.3425C316.269 17.6771 316.568 18.0786 316.701 18.5471C316.9 19.0155 317 19.4839 317 19.9523C317 20.6215 316.834 21.2238 316.502 21.7591C315.837 22.7629 315.006 23.2647 314.01 23.2647C313.478 23.2647 312.946 23.064 312.415 22.6625C307.962 19.5174 303.311 17.0414 298.459 15.2346C293.608 13.4279 288.857 12.5245 284.205 12.5245C280.417 12.5245 276.796 13.2606 273.34 14.7327C269.951 16.138 266.927 18.0786 264.269 20.5546C261.611 22.9636 259.518 25.7742 257.989 28.9862C256.461 32.1313 255.697 35.4437 255.697 38.9235C255.697 43.34 256.793 46.987 258.986 49.8645C261.179 52.675 264.17 54.7495 267.957 56.0878C271.812 57.4262 276.131 58.0954 280.916 58.0954C283.84 58.0954 286.664 57.995 289.389 57.7942C292.18 57.5935 294.572 57.4931 296.566 57.4931C300.686 57.4931 304.108 58.6642 306.833 61.0063C309.557 63.2815 310.919 66.2258 310.919 69.8394C310.919 73.8545 309.657 77.033 307.132 79.3752C304.673 81.7842 301.317 83.4906 297.064 84.4944C292.877 85.4981 288.126 86 282.81 86C281.946 86 281.082 86 280.218 86C279.421 86 278.557 85.9665 277.626 85.8996Z" fill="black"/>
<defs>
<filter id="filter0_d_2319_3739" x="74.4648" y="0" width="98.0186" height="97" filterUnits="userSpaceOnUse" color-interpolation-filters="sRGB">
<feFlood flood-opacity="0" result="BackgroundImageFix"/>
<feColorMatrix in="SourceAlpha" type="matrix" values="0 0 0 0 0 0 0 0 0 0 0 0 0 0 0 0 0 0 127 0" result="hardAlpha"/>
<feOffset dx="3" dy="1"/>
<feGaussianBlur stdDeviation="5"/>
<feComposite in2="hardAlpha" operator="out"/>
<feColorMatrix type="matrix" values="0 0 0 0 0 0 0 0 0 0 0 0 0 0 0 0 0 0 0.1 0"/>
<feBlend mode="normal" in2="BackgroundImageFix" result="effect1_dropShadow_2319_3739"/>
<feBlend mode="normal" in="SourceGraphic" in2="effect1_dropShadow_2319_3739" result="shape"/>
</filter>
</defs>
</svg>
