<svg width="154" height="154" viewBox="0 0 154 154" fill="none" xmlns="http://www.w3.org/2000/svg">
<path d="M77.2118 151.741C118.516 151.741 152 118.221 152 76.8707C152 35.5207 118.516 2 77.2118 2C35.9075 2 2.42383 35.5207 2.42383 76.8707C2.42383 118.221 35.9075 151.741 77.2118 151.741Z" fill="#0048B1"/>
<path d="M64.8496 41.5458C64.8496 37.7749 65.5453 34.601 67.0659 31.646C68.02 29.7854 69.3816 28.2034 71.0811 27.0393C72.2141 26.2633 73.4763 25.5071 74.9969 25.5668C75.5237 25.5867 75.9013 25.7757 76.1697 26.1936C78.1475 29.3377 78.8133 32.7006 77.9388 36.3521C77.5313 38.0336 76.7759 39.546 75.9808 41.0484C74.3807 44.0531 73.2477 47.227 73.2577 50.6696C73.2577 52.1421 73.2477 53.6545 73.7745 55.0773C73.9534 55.5648 74.2317 56.1319 73.6254 56.4802C73.0191 56.8284 72.4924 56.2911 72.0153 56.0424C70.5643 55.2763 69.4413 54.0724 68.4076 52.8386C67.7119 52.0028 67.1454 51.0278 66.6982 50.003C65.4658 47.1574 64.8198 44.1924 64.8496 41.5359V41.5458Z" fill="white"/>
<path d="M78.5751 25.8652C80.3044 26.5717 81.8349 27.5467 83.0176 28.9894C85.3234 31.8051 86.6253 35.0686 86.9931 38.6903C87.2316 41.0583 87.1819 43.3865 86.6651 45.7346C86.1383 48.1225 85.2836 50.3611 83.8823 52.3411C82.6996 54.0126 81.2784 55.5051 79.3503 56.3806C78.744 56.6592 78.0781 56.7289 77.462 56.9776C76.5277 57.3358 75.8618 56.5 75.3252 55.1568C74.6692 53.4952 74.4406 51.7541 74.6692 50.0029C74.8978 48.2319 75.1363 46.4708 75.9115 44.7794C77.0346 42.3318 78.5353 40.0235 79.1913 37.3968C80.046 33.9741 79.9665 30.5614 78.4757 27.2681C78.267 26.8204 77.939 26.2831 78.5651 25.8652H78.5751Z" fill="white"/>
<path d="M81.4224 77.7956C81.8299 75.4375 82.5554 73.2984 83.3307 71.1891C83.3605 71.1095 83.3903 71.0299 83.43 70.9503C84.3046 69.0897 84.1456 68.6917 82.2076 67.8659C81.6013 67.6072 81.005 67.3286 80.4087 67.05C80.0112 66.861 79.6434 66.5725 79.6037 66.1347C79.5639 65.6969 79.9615 65.4681 80.2894 65.2094C82.6051 63.3786 85.209 63.0105 88.0117 63.6473C88.618 63.7766 88.9559 63.3786 89.3435 63.0503C91.8083 60.931 94.3625 59.0108 97.8509 59.0605C98.4174 59.0605 98.7355 59.1899 98.8349 59.8465C99.1927 62.2941 98.8846 64.7019 98.4771 67.1097C97.9603 70.1145 97.0757 73.0496 96.7478 76.0942C96.6881 76.6016 96.867 76.7608 97.3639 76.9001C99.133 77.3877 100.852 78.0742 102.631 78.4921C104.838 78.9995 106.905 78.4921 108.833 77.0394C108.913 77.9349 108.247 78.2732 107.79 78.5717C105.663 79.9646 103.397 79.9447 101.031 79.1487C99.0038 78.4722 96.9664 77.8254 94.8892 77.3578C93.4481 77.0295 91.9772 77.4474 90.5659 77.8453C88.8565 78.3229 87.1868 78.9199 85.4674 79.3577C83.1617 79.9547 81.1442 79.089 79.2061 77.915C76.8805 76.4922 74.3958 76.4723 71.8913 77.2981C70.7186 77.6861 69.6154 78.2931 68.4426 78.701C66.1269 79.497 63.9603 78.7309 62.062 77.5568C59.1401 75.746 56.2778 75.3579 53.167 76.9399C51.3582 77.8652 49.5493 78.8204 47.6014 79.4373C46.7964 79.696 45.9615 79.7059 45.1167 79.6363C44.908 79.6164 44.6596 79.6064 44.6397 79.3179C44.6198 78.9995 44.8981 78.9895 45.0869 78.9796C47.1939 78.8503 49.0027 77.8354 50.8712 76.9996C51.7557 76.6016 51.6861 75.7062 51.9346 74.9998C52.521 73.3879 53.336 71.9154 54.4789 70.6418C55.1249 69.9255 54.7075 69.4578 54.2404 68.9703C53.7335 68.443 53.2068 67.9256 52.6502 67.448C52.2924 67.1396 52.3819 66.8311 52.6005 66.5526C54.0615 64.7218 56.6157 63.8861 59.1103 64.9208C60.0644 65.3188 60.9191 65.8163 61.7937 66.3337C62.0223 66.463 62.2509 66.5327 62.5192 66.5327C64.4871 66.5028 66.2661 67.1296 67.8761 68.2241C69.5359 69.3583 70.6788 70.9105 71.464 72.7412C71.6727 73.2387 71.2553 73.378 70.9074 73.5869C69.9732 74.154 68.86 74.3033 67.9358 74.9401C67.1307 75.4972 66.594 76.2136 66.2561 77.0593C65.9083 77.9349 66.6338 77.9249 67.1605 77.8553C68.3333 77.716 69.3868 77.1887 70.4502 76.7111C72.587 75.7659 74.7238 75.2485 77.0991 75.8654C78.4011 76.1937 79.4844 76.8106 80.5876 77.4673C80.7963 77.5966 81.0448 77.6563 81.3926 77.7956H81.4224ZM97.3838 60.0455C96.8173 60.0057 96.2508 60.0455 95.6644 60.2445C94.1438 60.7619 92.7027 61.4385 91.4704 62.4832C90.6951 63.1498 89.1845 63.3687 89.9299 65.2492C88.2602 64.3736 86.6998 64.1348 85.0898 64.2642C83.4698 64.3935 81.979 64.881 80.687 66.1844C82.2573 66.7217 83.5891 67.3684 84.6823 68.3534C85.7557 69.3185 86.7297 70.423 86.8092 72.0547C86.183 71.3682 85.5668 70.6816 84.9308 69.9852C83.7878 71.5672 82.3467 76.5519 82.5356 78.1538C83.2611 78.3329 84.0065 78.2931 84.7519 78.2533C87.1272 78.1239 89.105 76.6713 91.3809 76.2236C91.689 76.1639 91.689 75.8554 91.7288 75.5967C91.8878 74.6714 92.017 73.7362 92.2356 72.8208C93.0208 69.5175 94.4619 66.5625 96.9664 64.1945C98.2584 62.9707 98.5268 62.0056 98 60.931C97.5627 60.8116 97.4136 61.5081 96.9465 61.329C96.6981 60.7519 97.5925 60.6226 97.3838 60.0455ZM53.3658 67.0003C54.5783 68.3733 56.079 69.5076 56.6058 71.4378C56.1685 71.4577 56.0691 71.2488 55.9399 71.0498C55.6914 70.6916 55.4032 70.6518 55.115 71.0199C54.469 71.8358 53.7931 72.6417 53.3558 73.5969C53.0179 74.3431 52.5111 75.0495 52.5309 76.0146C52.7893 75.935 52.9583 75.9052 53.1074 75.8355C55.0851 74.8406 57.1126 74.4227 59.2892 75.0993C59.6668 75.2186 60.0644 75.3181 60.4421 74.9898C62.2409 73.4377 64.3479 73.0496 66.6537 73.3481C67.5879 73.4675 68.5718 73.9551 69.4663 73.1491C69.4067 72.9203 69.347 72.7014 69.2973 72.5024C69.6353 72.2039 69.9732 72.6815 70.2813 72.4427C70.0328 70.3135 65.4014 67.1097 63.3044 67.6371C63.2746 68.2141 63.9404 68.7216 63.5131 69.418C62.1416 67.5873 60.4122 66.3436 58.2854 65.5775C56.7449 65.0203 54.0814 65.6969 53.3658 67.0003ZM96.0322 76.4226C96.38 72.3134 97.7814 68.4728 98.0696 64.3736C95.7638 65.1298 92.2853 72.6616 92.5537 76.1738C93.6767 76.1738 94.7998 76.1838 96.0322 76.4126V76.4226ZM66.9717 74.3331C64.656 73.8058 62.6882 74.2336 60.8495 75.4375C60.8694 75.5171 60.8495 75.6166 60.8893 75.6365C62.1416 76.4822 63.5031 77.129 64.9343 77.6364C65.0039 77.6662 65.1828 77.5867 65.2026 77.517C65.5505 76.3728 66.1965 75.3878 66.9717 74.3331Z" fill="white"/>
<path d="M109.082 91.8349C108.197 93.2676 106.945 93.9243 105.464 94.193C103.387 94.581 101.439 94.0338 99.4813 93.3572C97.3942 92.6309 95.3071 91.8846 93.0013 92.0737C90.8149 92.2528 88.8371 93.1184 86.7698 93.6756C84.8219 94.2029 82.9534 94.4914 81.0253 93.5363C79.3954 92.7204 77.8549 91.7056 75.9566 91.4369C73.8795 91.1384 72.0607 91.8051 70.3115 92.6408C68.3636 93.5661 66.4454 93.8348 64.3881 93.2278C62.6489 92.7105 61.1978 91.5762 59.4983 90.9593C57.8982 90.3723 56.3279 90.4221 54.7079 90.9991C53.6644 91.3772 52.6805 91.8449 51.6965 92.3224C50.0268 93.1283 48.387 94.0338 46.4986 94.2825C45.7533 94.382 45.0675 94.2825 44.332 94.0437C44.7495 93.4268 45.3656 93.5661 45.8725 93.4965C48.1385 93.198 50.0368 92.004 52.0146 91.019C54.4197 89.8251 56.9044 88.8699 59.5977 89.8947C61.0885 90.4519 62.4501 91.3175 63.9111 91.9742C65.6801 92.7602 67.4691 92.7801 69.2282 91.9045C72.0607 90.4917 74.9727 89.6957 78.0835 90.82C79.4848 91.3275 80.6974 92.2826 82.1186 92.81C83.3609 93.2776 84.6032 93.1781 85.8157 92.8597C87.7339 92.3622 89.6023 91.6857 91.5006 91.1285C93.7666 90.4619 95.8537 91.0887 97.921 91.7255C99.4316 92.1831 100.893 92.81 102.453 93.0985C104.689 93.5064 106.856 93.4368 108.694 91.8051C108.724 91.7752 108.814 91.8051 109.072 91.8349H109.082Z" fill="white"/>
<path d="M108.972 84.3429C108.684 85.1389 108.008 85.5866 107.382 85.9547C105.086 87.3079 102.731 86.8701 100.365 86.094C98.6858 85.5468 96.9963 84.9996 95.2868 84.5518C93.5078 84.0942 91.7884 84.6314 90.0889 85.0991C88.1807 85.6264 86.3321 86.4025 84.3345 86.6114C82.794 86.7706 81.4523 86.2731 80.1503 85.4672C77.288 83.726 74.2866 83.3081 71.136 84.7608C69.0191 85.7458 66.8426 86.6611 64.4772 85.7159C63.0361 85.1389 61.6944 84.3429 60.2831 83.6962C58.186 82.7311 56.0492 82.8306 53.9522 83.6962C52.9782 84.0942 52.0539 84.5916 51.1098 85.0692C49.6388 85.8154 48.1481 86.5119 46.4982 86.7507C45.7827 86.8502 45.0671 86.8701 44.2422 86.293C45.2957 86.0741 46.1305 85.9348 46.9355 85.7159C48.4959 85.2981 49.9171 84.5518 51.3383 83.8056C52.6999 83.0992 54.1013 82.4724 55.6119 82.0843C58.3848 81.3879 60.6111 82.6117 62.8373 83.8753C65.153 85.1886 67.4786 85.3677 69.854 84.1141C71.0963 83.4673 72.3982 82.9599 73.7797 82.751C76.2842 82.3729 78.5204 83.2086 80.5777 84.522C82.2176 85.5667 83.9668 85.6363 85.7259 85.2284C87.4651 84.8205 89.1448 84.1539 90.8741 83.6564C93.5078 82.8903 96.0521 83.4076 98.5467 84.323C100.584 85.0692 102.631 85.8154 104.848 85.6463C106.06 85.5567 107.243 85.2981 108.237 84.5021C108.495 84.2931 108.505 84.3031 108.982 84.313L108.972 84.3429Z" fill="white"/>
<path d="M100.008 81.0785C99.5404 81.3471 99.1329 81.2775 98.7056 81.0188C95.8731 79.3174 92.8915 78.7105 89.741 79.984C88.8067 80.3621 87.8626 80.7203 86.9283 81.0984C86.4115 81.3073 85.9941 81.0785 85.5469 80.7203C86.2227 80.3621 86.978 80.4715 87.6439 80.1134C90.3572 78.6508 93.2195 77.9443 96.2408 79.0488C97.503 79.5064 98.6857 80.183 99.8883 80.77C99.9578 80.7999 99.9578 80.9591 100.008 81.0685V81.0785Z" fill="white"/>
<path d="M62.5391 86.591C63.682 86.78 64.5069 87.2476 65.4511 87.3471C66.9816 87.4964 68.3432 87.0586 69.7247 86.5114C71.5136 85.805 73.2529 84.7702 75.3102 85.3373C75.5686 85.407 75.8468 85.4667 75.7673 85.8149C75.6978 86.1333 75.3996 86.0835 75.1909 86.0636C73.1038 85.8149 71.3447 86.7402 69.4861 87.4665C67.3692 88.3023 65.1629 88.6605 63.0956 87.188C62.9366 87.0785 62.8273 86.8994 62.5391 86.591Z" fill="white"/>
<path d="M47.6611 81.139C48.1084 80.4624 48.7146 80.5321 49.1519 80.2535C51.1496 78.9501 53.1969 77.7064 55.5623 77.1791C56.2779 77.0199 57.0929 76.8507 57.5997 77.6964C57.4606 77.9452 57.2817 77.9452 57.0829 77.9352C54.6281 77.7661 52.6702 79.0297 50.6427 80.144C49.788 80.6117 48.9134 81.1689 47.6711 81.1291L47.6611 81.139Z" fill="white"/>
<path d="M80.637 87.5659C79.9413 87.6355 77.6753 86.6903 77.4766 86.2426C78.4903 85.8645 80.6172 86.76 80.637 87.5659Z" fill="white"/>
<path d="M93.3195 64.2538C93.0412 64.2239 92.8126 64.0946 92.8226 63.7861C92.8425 63.3384 93.2201 63.2787 93.5481 63.2389C93.8264 63.2091 94.0053 63.3683 93.9655 63.6667C93.9158 64.0249 93.6872 64.2239 93.3195 64.2538Z" fill="white"/>
<path d="M67.4186 71.1886C67.4384 71.5667 67.2397 71.7159 66.9514 71.7059C66.6235 71.7059 66.3849 71.5468 66.375 71.1786C66.375 70.8801 66.544 70.7607 66.8123 70.7607C67.1403 70.7607 67.3887 70.8801 67.4186 71.1985V71.1886Z" fill="white"/>
<path d="M37.8496 114.293C37.8496 114.493 37.7311 114.594 37.4941 114.594H35.9287C35.751 114.594 35.5596 114.532 35.3545 114.409C35.1494 114.282 34.9899 114.129 34.876 113.951L33.6729 112.044C33.3857 111.579 33.0964 111.23 32.8047 110.998C32.513 110.761 32.1621 110.643 31.752 110.643H30.2822V113.965C30.2822 114.143 30.2184 114.293 30.0908 114.416C29.9678 114.535 29.8174 114.594 29.6396 114.594H28.3545C28.1768 114.594 28.0241 114.53 27.8965 114.402C27.7689 114.27 27.7051 114.115 27.7051 113.938V105.44C27.7051 105.263 27.7689 105.108 27.8965 104.976C28.0241 104.843 28.1768 104.777 28.3545 104.777H29.6396C29.8174 104.777 29.9678 104.843 30.0908 104.976C30.2184 105.108 30.2822 105.263 30.2822 105.44V108.715H31.752C32.153 108.715 32.5039 108.605 32.8047 108.387C33.11 108.168 33.3994 107.815 33.6729 107.327L34.7324 105.44C34.974 105.003 35.3021 104.782 35.7168 104.777H37.2959C37.5146 104.777 37.624 104.873 37.624 105.064C37.624 105.169 37.5853 105.295 37.5078 105.44L36.0244 108.127C35.8102 108.519 35.5687 108.842 35.2998 109.098C35.0355 109.353 34.6891 109.533 34.2607 109.638C34.5615 109.701 34.8691 109.891 35.1836 110.205C35.5026 110.52 35.7829 110.861 36.0244 111.23L37.7334 113.951C37.8109 114.083 37.8496 114.197 37.8496 114.293ZM47.6729 113.582C46.7432 114.398 45.376 114.806 43.5713 114.806C41.7712 114.806 40.404 114.398 39.4697 113.582C38.5355 112.762 38.0684 111.465 38.0684 109.692C38.0684 107.92 38.5355 106.625 39.4697 105.81C40.404 104.994 41.7712 104.586 43.5713 104.586C45.376 104.586 46.7432 104.994 47.6729 105.81C48.6071 106.625 49.0742 107.92 49.0742 109.692C49.0742 111.465 48.6071 112.762 47.6729 113.582ZM45.8066 107.252C45.3464 106.705 44.6012 106.432 43.5713 106.432C42.5459 106.432 41.8008 106.705 41.3359 107.252C40.8757 107.799 40.6455 108.615 40.6455 109.699C40.6455 110.779 40.8757 111.593 41.3359 112.14C41.8008 112.682 42.5459 112.953 43.5713 112.953C44.6012 112.953 45.3464 112.682 45.8066 112.14C46.2669 111.593 46.4971 110.779 46.4971 109.699C46.4971 108.615 46.2669 107.799 45.8066 107.252ZM54.8779 105.673V105.003C54.8779 104.825 54.9417 104.675 55.0693 104.552C55.1969 104.424 55.3542 104.36 55.541 104.36H56.7988C56.9857 104.36 57.1406 104.424 57.2637 104.552C57.3913 104.675 57.4551 104.825 57.4551 105.003V105.673C59.0137 105.673 60.2533 105.994 61.1738 106.637C62.0944 107.275 62.5547 108.293 62.5547 109.692C62.5547 111.091 62.0944 112.112 61.1738 112.755C60.2533 113.393 59.0137 113.712 57.4551 113.712V114.382C57.4551 114.56 57.389 114.71 57.2568 114.833C57.1292 114.961 56.9766 115.024 56.7988 115.024H55.541C55.3633 115.024 55.2083 114.961 55.0762 114.833C54.944 114.71 54.8779 114.56 54.8779 114.382V113.712C53.3193 113.712 52.0798 113.393 51.1592 112.755C50.2432 112.112 49.7852 111.091 49.7852 109.692C49.7852 108.293 50.2432 107.275 51.1592 106.637C52.0798 105.994 53.3193 105.673 54.8779 105.673ZM54.9531 111.866V107.525C54.151 107.525 53.5176 107.705 53.0527 108.065C52.5924 108.421 52.3623 108.963 52.3623 109.692C52.3623 110.422 52.5924 110.966 53.0527 111.326C53.5176 111.686 54.151 111.866 54.9531 111.866ZM57.3867 111.866C58.1888 111.866 58.82 111.686 59.2803 111.326C59.7451 110.966 59.9775 110.422 59.9775 109.692C59.9775 108.963 59.7451 108.421 59.2803 108.065C58.82 107.705 58.1888 107.525 57.3867 107.525V111.866ZM63.8125 113.938V105.427C63.8125 105.249 63.8763 105.099 64.0039 104.976C64.1315 104.853 64.2842 104.791 64.4619 104.791H72.3438C72.5215 104.791 72.6719 104.855 72.7949 104.982C72.9225 105.11 72.9863 105.263 72.9863 105.44V106.083C72.9863 106.261 72.9225 106.413 72.7949 106.541C72.6719 106.664 72.5215 106.726 72.3438 106.726H66.3896V108.715H71.5166C71.6943 108.715 71.8447 108.779 71.9678 108.906C72.0954 109.029 72.1592 109.18 72.1592 109.357V110C72.1592 110.178 72.0954 110.33 71.9678 110.458C71.8447 110.581 71.6943 110.643 71.5166 110.643H66.3896V112.659H72.3301C72.5033 112.659 72.6514 112.721 72.7744 112.844C72.8975 112.967 72.959 113.117 72.959 113.295V113.951C72.959 114.129 72.8952 114.282 72.7676 114.409C72.64 114.532 72.4873 114.594 72.3096 114.594H64.4619C64.2842 114.594 64.1315 114.532 64.0039 114.409C63.8763 114.282 63.8125 114.124 63.8125 113.938ZM79.1523 113.965V105.44C79.1523 105.254 79.2139 105.099 79.3369 104.976C79.46 104.853 79.6149 104.791 79.8018 104.791H87.499C87.6768 104.791 87.8271 104.855 87.9502 104.982C88.0778 105.11 88.1416 105.263 88.1416 105.44V106.083C88.1416 106.261 88.0801 106.413 87.957 106.541C87.8385 106.664 87.6904 106.726 87.5127 106.726H81.7295V108.38H85.1064C86.2139 108.38 87.1117 108.642 87.7998 109.166C88.488 109.686 88.832 110.46 88.832 111.49C88.832 112.516 88.488 113.29 87.7998 113.814C87.1117 114.334 86.2139 114.594 85.1064 114.594H79.7676C79.5944 114.594 79.4486 114.535 79.3301 114.416C79.2116 114.293 79.1523 114.143 79.1523 113.965ZM81.7295 112.659H85.1064C85.8721 112.659 86.2549 112.267 86.2549 111.483C86.2549 110.7 85.8721 110.308 85.1064 110.308H81.7295V112.659ZM90.2266 113.951V105.44C90.2266 105.263 90.2881 105.11 90.4111 104.982C90.5342 104.855 90.6846 104.791 90.8623 104.791H96.0781C98.8353 104.791 100.214 106.062 100.214 108.605C100.214 111.144 98.8353 112.413 96.0781 112.413H92.8037V113.951C92.8037 114.129 92.7399 114.282 92.6123 114.409C92.4893 114.532 92.3389 114.594 92.1611 114.594H90.876C90.6982 114.594 90.5456 114.532 90.418 114.409C90.2904 114.282 90.2266 114.129 90.2266 113.951ZM92.8037 110.479H95.2988C96.0645 110.479 96.6455 110.351 97.042 110.096C97.4385 109.836 97.6367 109.339 97.6367 108.605C97.6367 107.867 97.4385 107.37 97.042 107.115C96.6455 106.855 96.0645 106.726 95.2988 106.726H92.8037V110.479ZM101.479 113.951V105.44C101.479 105.254 101.54 105.099 101.663 104.976C101.786 104.853 101.941 104.791 102.128 104.791H103.331C103.509 104.791 103.659 104.853 103.782 104.976C103.91 105.099 103.974 105.249 103.974 105.427V112.27L107.863 105.44C107.968 105.263 108.112 105.11 108.294 104.982C108.476 104.855 108.645 104.791 108.8 104.791H110.816C110.994 104.791 111.145 104.855 111.268 104.982C111.391 105.11 111.452 105.263 111.452 105.44V113.951C111.452 114.129 111.388 114.282 111.261 114.409C111.133 114.532 110.98 114.594 110.803 114.594H109.6C109.422 114.594 109.269 114.532 109.142 114.409C109.019 114.282 108.957 114.129 108.957 113.951V107.607L105.389 113.951C105.284 114.129 105.136 114.282 104.944 114.409C104.753 114.532 104.568 114.594 104.391 114.594H102.128C101.95 114.594 101.798 114.532 101.67 114.409C101.542 114.282 101.479 114.129 101.479 113.951ZM112.785 111.921C112.785 111.652 112.865 111.458 113.024 111.34C113.184 111.221 113.339 111.162 113.489 111.162H114.296C114.715 111.162 115.043 111.415 115.28 111.921C115.394 112.162 115.586 112.356 115.854 112.502C116.123 112.648 116.422 112.721 116.75 112.721H118.89C119.386 112.721 119.758 112.641 120.004 112.481C120.25 112.322 120.373 112.051 120.373 111.668C120.373 111.285 120.25 111.014 120.004 110.854C119.758 110.695 119.386 110.615 118.89 110.615H117.126C116.948 110.615 116.796 110.554 116.668 110.431C116.545 110.303 116.483 110.15 116.483 109.973V109.412C116.483 109.243 116.543 109.095 116.661 108.968C116.784 108.836 116.93 108.77 117.099 108.77H118.637C119.188 108.77 119.591 108.688 119.847 108.523C120.106 108.359 120.236 108.093 120.236 107.724C120.236 107.35 120.106 107.081 119.847 106.917C119.591 106.753 119.188 106.671 118.637 106.671H116.976C116.237 106.671 115.727 106.951 115.444 107.512C115.239 107.94 114.932 108.154 114.521 108.154H113.708C113.489 108.154 113.318 108.075 113.195 107.915C113.072 107.756 113.011 107.582 113.011 107.396C113.011 106.621 113.403 105.985 114.187 105.488C114.97 104.987 115.82 104.736 116.736 104.736H118.835C121.487 104.736 122.813 105.734 122.813 107.73C122.813 108.56 122.499 109.214 121.87 109.692C122.59 110.139 122.95 110.798 122.95 111.668C122.95 112.721 122.62 113.482 121.959 113.951C121.303 114.416 120.359 114.648 119.129 114.648H116.511C115.586 114.648 114.733 114.396 113.954 113.89C113.175 113.379 112.785 112.723 112.785 111.921Z" fill="white"/>
<path d="M76.788 152C118.092 152 151.576 118.479 151.576 77.1294C151.576 35.7795 118.092 2.25879 76.788 2.25879C35.4837 2.25879 2 35.7795 2 77.1294C2 118.479 35.4837 152 76.788 152Z" stroke="white" stroke-width="3" stroke-miterlimit="10"/>
</svg>
