<svg width="70" height="72" viewBox="0 0 70 72" fill="none" xmlns="http://www.w3.org/2000/svg">
<path d="M50.2054 36.7537L50.2816 36.7968L60.917 42.7966L63.9744 60.1754L50.5373 56.9424L47.5762 46.5632L45.0866 39.9914L37.7421 34.5458L38.4837 33.0878L50.2054 36.7537ZM51.867 55.5558L55.8341 56.5102L54.0709 50.9614L49.7657 48.1902L51.867 55.5558ZM55.6981 50.6039L57.719 56.9637L61.902 57.9703L60.14 47.9552L58.5587 47.1242L55.6981 50.6039ZM49.043 45.7521L54.5991 49.3283L57.0588 46.3361L47.3269 41.2222L49.043 45.7521ZM47.6291 39.5067L59.7767 45.8902L59.4189 43.8562L49.8417 38.4533L47.6291 39.5067ZM45.8698 38.5068L47.6076 37.6795L42.6723 36.136L45.8698 38.5068Z" fill="#F7F6F3"/>
<path d="M68.7777 12.627V28.3207L65.219 28.9206L59.1188 37.8624L48.5825 34.983L58.3188 28.4689L58.3321 28.4606L67.1186 23.0538V14.286H47.1738L43.1938 24.7035L41.644 24.1114L46.0317 12.627H68.7777ZM59.0802 29.9555L52.5258 34.3408L58.415 35.9501L62.9497 29.3032L59.0802 29.9555ZM62.8298 27.6409L67.1186 26.9178V25.0018L62.8298 27.6409Z" fill="#F7F6F3"/>
<path d="M31.2987 34.5465L23.9483 39.972L21.4497 46.5076L18.4736 56.8306L5.035 60.0663L8.12072 42.7738L18.8367 36.75L30.5587 33.0872L31.2987 34.5465ZM14.9506 50.8909L13.1831 56.3979L17.1467 55.4435L19.2548 48.1317L14.9506 50.8909ZM8.88908 47.9121L7.11404 57.8591L11.2948 56.8525L13.3234 50.532L10.4736 47.0822L8.88908 47.9121ZM11.9757 46.2955L14.4231 49.2583L19.9849 45.6929L21.7022 41.2012L11.9757 46.2955ZM9.61641 43.8361L9.25771 45.8461L21.3991 39.4872L19.2003 38.4488L9.61641 43.8361ZM21.4438 37.6735L23.1664 38.487L26.3421 36.143L21.4438 37.6735Z" fill="#F7F6F3"/>
<path d="M22.844 12.3965L27.2516 23.8246L25.7036 24.4216L21.7057 14.0556H1.66249V22.7715L10.4875 28.1508L10.5009 28.159L10.514 28.1678L20.2923 34.6486L9.70562 37.5145L3.57916 28.6186L0.00341797 28.0215V12.3965H22.844ZM10.4059 35.6061L16.3189 34.0054L9.74471 29.6482L5.8553 28.9987L10.4059 35.6061ZM1.66249 26.6165L5.96018 27.3342L1.66249 24.7144V26.6165Z" fill="#F7F6F3"/>
<path d="M37.7341 16.9053L42.4501 21.0801L44.0946 28.5141L34.357 37.9646L24.6221 28.5165L26.2168 21.082L30.935 16.9053H37.7341ZM35.1006 30.0008L35.1621 34.8713L42.2747 27.9684L41.2341 23.2644L35.1006 30.0008ZM26.4369 27.9659L33.5023 34.8232L33.4415 30.0054L27.4396 23.2916L26.4369 27.9659ZM28.1446 21.591L34.2726 28.4457L40.5187 21.5859L37.1051 18.5643H31.5639L28.1446 21.591Z" fill="#F7F6F3"/>
<path d="M47.3506 1.26142L40.9125 6.76605V10.3745L43.4698 15.1681L38.1881 18.5639H30.7163L25.3217 15.1752L27.8749 10.3891L27.7402 6.77242L21.4375 1.25516L22.5304 0.00675299L29.3715 5.99549L29.4656 8.51876L34.5135 2.96078L39.2535 8.375V6.00176L46.2724 0.000488281L47.3506 1.26142ZM35.3247 14.7129L35.2919 16.9048H37.7009L41.286 14.5996L39.7796 11.7757L35.3247 14.7129ZM27.513 14.5924L31.194 16.9048H33.6327L33.6656 14.7132L29.0228 11.7623L27.513 14.5924ZM29.9887 10.4104L34.4937 13.2738L38.8325 10.413L34.4907 5.45349L29.9887 10.4104Z" fill="#F7F6F3"/>
<path d="M32.1573 34.5399L29.2646 38.0282H39.5707L36.7814 34.5274L38.079 33.4935L42.0355 38.4593L43.9579 44.4353L42.859 50.6204L41.8024 56.9207L35.2253 66.0032V71.6853H33.5662V66.0047L26.9498 56.9219L25.8928 50.6206L25.8913 50.6114L25.8899 50.6021L24.9971 44.433L26.7514 38.4598L30.8803 33.481L32.1573 34.5399ZM34.3936 64.3229L39.3915 57.4212H29.3662L34.3936 64.3229ZM28.4376 55.7621H40.3144L41.0608 51.3128H27.6911L28.4376 55.7621ZM27.4291 49.6537H41.3459L42.1152 45.3228H26.8023L27.4291 49.6537ZM26.9522 43.6637H41.9668L40.6877 39.6872H28.12L26.9522 43.6637Z" fill="#F7F6F3"/>
</svg>
