<svg width="268" height="80" viewBox="0 0 268 80" fill="none" xmlns="http://www.w3.org/2000/svg">
<path d="M267.951 61.3846H260.208L255.065 51.8726H227.912L222.769 61.3846H215.026L237.203 20.4609H245.774L267.951 61.3846ZM241.516 26.8207L231.562 45.1257H251.415L241.516 26.8207Z" fill="#F7F6F3"/>
<path d="M180.414 26.6548V20.4609H225.817L180.414 26.6548ZM225.817 20.4609V26.8207H206.849V61.3846H199.659V26.8207H180.414V20.4609H225.817Z" fill="#F7F6F3"/>
<path d="M154.139 19.5762C158.821 19.5762 163.024 20.5163 166.748 22.3966C170.509 24.24 173.44 26.8023 175.541 30.0836C177.679 33.328 178.749 36.9964 178.749 41.0887C178.749 45.1443 177.679 48.7942 175.541 52.0386C173.44 55.283 170.526 57.8453 166.803 59.7256C163.079 61.569 158.876 62.4907 154.194 62.4907C149.66 62.4907 145.493 61.569 141.696 59.7256C137.898 57.8453 134.894 55.283 132.682 52.0386C130.47 48.7573 129.364 45.1073 129.364 41.0887C129.364 37.0332 130.47 33.3649 132.682 30.0836C134.894 26.8023 137.88 24.24 141.641 22.3966C145.438 20.5163 149.604 19.5762 154.139 19.5762ZM154.139 56.2416C157.126 56.2416 159.946 55.6517 162.6 54.4719C165.255 53.2921 167.393 51.5593 169.015 49.2735C170.637 46.9876 171.449 44.2594 171.449 41.0887C171.449 37.9918 170.619 35.282 168.96 32.9593C167.338 30.6366 165.181 28.867 162.49 27.6503C159.798 26.4337 156.96 25.8253 153.973 25.8253C150.728 25.8253 147.779 26.4337 145.125 27.6503C142.507 28.867 140.442 30.6366 138.931 32.9593C137.419 35.2452 136.664 37.955 136.664 41.0887C136.664 44.2963 137.456 47.0429 139.042 49.3288C140.663 51.6146 142.802 53.3474 145.457 54.5272C148.111 55.6701 151.005 56.2416 154.139 56.2416Z" fill="#F7F6F3"/>
<path d="M101.971 37.881C106.727 37.881 110.709 38.1022 113.917 38.5446C117.161 38.9502 119.853 39.9272 121.991 41.4756C124.129 43.0241 125.198 45.3653 125.198 48.499C125.198 54.0661 122.784 57.8266 117.954 59.7807C113.161 61.6978 107.742 62.6564 101.695 62.6564C98.4134 62.6564 94.9663 62.2878 91.3532 61.5504C87.74 60.8499 84.5142 59.412 81.6753 57.2368C78.8364 55.0247 77.417 51.9093 77.417 47.8907L84.9934 47.6695C84.9934 50.2502 86.0073 52.1675 88.035 53.4209C90.0997 54.6744 92.3486 55.4486 94.7819 55.7436C97.2152 56.0386 99.7959 56.186 102.524 56.186C106.727 56.186 110.322 55.6146 113.308 54.4717C116.331 53.3288 117.862 51.4116 117.898 48.7202V48.6649C117.898 46.8584 116.424 45.7155 113.474 45.2362C110.524 44.72 106.912 44.462 102.635 44.462H101.197C95.8142 44.4251 91.5006 44.1855 88.2562 43.743C85.0487 43.3006 82.431 42.2683 80.4033 40.6461C78.4124 39.0239 77.417 36.5169 77.417 33.125C77.417 27.4104 79.9424 23.6683 84.9934 21.8986C90.0812 20.129 95.6483 19.2441 101.695 19.2441C104.828 19.2441 108.146 19.6128 111.649 20.3502C115.152 21.0506 118.285 22.507 121.051 24.7191C123.816 26.8943 125.198 29.9912 125.198 34.0098H117.622C117.622 31.3922 116.092 29.4198 113.032 28.0925C110.009 26.7284 106.304 25.9542 101.916 25.7698C97.1231 25.7698 93.0491 26.3597 89.6941 27.5395C86.376 28.6824 84.7169 30.489 84.7169 32.9591C84.7169 35.0238 86.2654 36.3694 89.3623 36.9962C92.4592 37.586 96.1645 37.881 100.478 37.881H100.533H101.473H101.916H101.971Z" fill="#F7F6F3"/>
<path d="M49.5725 41.0336L49.6573 41.0555L61.4831 44.0982L68.9343 60.0935L55.1183 60.4485L49.5717 51.1893L45.4661 45.4859L36.9624 42.1267L37.3015 40.5264L49.5725 41.0336ZM56.0438 58.765L60.1228 58.6601L56.9835 53.7567L52.1078 52.1943L56.0438 58.765ZM58.4628 52.9902L62.0609 58.6103L66.3618 58.4999L62.0678 49.2822L60.3252 48.8888L58.4628 52.9902ZM50.7787 50.0263L57.071 52.0425L58.6725 48.5157L47.9486 46.0948L50.7787 50.0263ZM47.7966 44.3596L61.1824 47.3816L60.3103 45.5095L49.6611 42.7695L47.7966 44.3596ZM45.8384 43.8491L47.3028 42.6002L42.1362 42.3867L45.8384 43.8491Z" fill="#F7F6F3"/>
<path d="M69.0619 20.0352V35.7289L65.5032 36.3288L59.403 45.2706L48.8667 42.3912L58.6029 35.8771L58.6163 35.8688L67.4028 30.462V21.6942H47.458L43.478 32.1117L41.9282 31.5196L46.3159 20.0352H69.0619ZM59.3644 37.3637L52.81 41.749L58.6992 43.3583L63.2338 36.7114L59.3644 37.3637ZM63.114 35.0491L67.4028 34.326V32.41L63.114 35.0491Z" fill="#F7F6F3"/>
<path d="M32.258 42.1265L23.7538 45.4647L19.6488 51.1309L14.1023 60.3319L0.28418 59.9791L7.74037 44.0746L19.6503 41.0295L31.9209 40.5254L32.258 42.1265ZM12.2367 53.6828L9.10413 58.5446L13.1797 58.6487L17.1084 52.1316L12.2367 53.6828ZM7.15268 49.2366L2.86362 58.3853L7.16251 58.4951L10.7578 52.9149L8.89794 48.8451L7.15268 49.2366ZM10.5525 48.474L12.1496 51.9693L18.4448 49.9649L21.2661 46.0706L10.5525 48.474ZM8.91014 45.4878L8.04345 47.3364L21.417 44.3366L19.5619 42.7645L8.91014 45.4878ZM21.9295 42.5963L23.3829 43.828L27.0571 42.3857L21.9295 42.5963Z" fill="#F7F6F3"/>
<path d="M23.1282 19.8047L27.5357 31.2328L25.9878 31.8298L21.9898 21.4638H1.94667V30.1797L10.7717 35.559L10.7851 35.5672L10.7982 35.576L20.5765 42.0568L9.98979 44.9227L3.86334 36.0268L0.287598 35.4297V19.8047H23.1282ZM10.69 43.0144L16.6031 41.4136L10.0289 37.0564L6.13948 36.4069L10.69 43.0144ZM1.94667 34.0247L6.24436 34.7425L1.94667 32.1226V34.0247Z" fill="#F7F6F3"/>
<path d="M69.2822 20V60.0002L34.641 80L0 60.0002V20L34.641 0L69.2822 20ZM1.65907 20.9577V59.0423L34.641 78.0842L67.6231 59.0423V20.9577L34.641 1.9157L1.65907 20.9577Z" fill="#F7F6F3"/>
<path d="M38.0183 24.3135L42.7343 28.4883L44.3788 35.9223L34.6412 45.3728L24.9062 35.9247L26.5009 28.4902L31.2191 24.3135H38.0183ZM35.3847 37.409L35.4463 42.2795L42.5589 35.3766L41.5183 30.6726L35.3847 37.409ZM26.7211 35.3741L33.7865 42.2314L33.7257 37.4136L27.7237 30.6998L26.7211 35.3741ZM28.4287 28.9992L34.5568 35.8539L40.8028 28.9941L37.3893 25.9725H31.8481L28.4287 28.9992Z" fill="#F7F6F3"/>
<path d="M47.6348 8.66914L41.1967 14.1738V17.7822L43.754 22.5758L38.4723 25.9716H31.0005L25.6059 22.5829L28.1591 17.7968L28.0244 14.1801L21.7217 8.66287L22.8145 7.41447L29.6557 13.4032L29.7498 15.9265L34.7976 10.3685L39.5376 15.7827V13.4095L46.5566 7.4082L47.6348 8.66914ZM35.6089 22.1207L35.5761 24.3125H37.9851L41.5702 22.0073L40.0638 19.1834L35.6089 22.1207ZM27.7972 22.0001L31.4782 24.3125H33.9169L33.9497 22.1209L29.3069 19.17L27.7972 22.0001ZM30.2729 17.8181L34.7779 20.6815L39.1167 17.8207L34.7748 12.8612L30.2729 17.8181Z" fill="#F7F6F3"/>
<path d="M32.4415 41.9476L29.5488 45.4359H39.8549L37.0656 41.9351L38.3631 40.9012L42.3196 45.8671L44.242 51.8431L43.1432 58.0282L42.0865 64.3284L35.5095 73.4109V79.093H33.8504V73.4124L27.234 64.3296L26.177 58.0283L26.1755 58.0191L26.1741 58.0098L25.2812 51.8407L27.0356 45.8675L31.1645 40.8887L32.4415 41.9476ZM34.6778 71.7306L39.6757 64.8289H29.6503L34.6778 71.7306ZM28.7218 63.1699H40.5986L41.3449 58.7205H27.9753L28.7218 63.1699ZM27.7133 57.0614H41.6301L42.3993 52.7305H27.0865L27.7133 57.0614ZM27.2364 51.0714H42.2509L40.9719 47.0949H28.4042L27.2364 51.0714Z" fill="#F7F6F3"/>
</svg>
