<svg width="650" height="650" viewBox="0 0 650 650" fill="none" xmlns="http://www.w3.org/2000/svg">
<path d="M531.346 205.865V444.134L325 563.268L118.654 444.134V205.865L325 86.7314L531.346 205.865Z" stroke="white" stroke-width="3"/>
<path d="M314.019 328.246L314.02 328.152L314.004 328.202L314 328.166L314.017 328.123L314 328.079L314.004 328.043L314.02 328.094L314.019 328H314.027L314.027 328.094L314.042 328.043L314.046 328.079L314.03 328.123L314.046 328.166L314.042 328.202L314.027 328.152L314.027 328.246H314.019Z" fill="white"/>
<path d="M314.228 328V328.437H314.218V328.047H314.174V328.437H314.164V328H314.228Z" fill="white"/>
<path d="M314.248 328.559V328.109H314.258V328.161H314.259C314.26 328.155 314.261 328.148 314.262 328.139C314.263 328.13 314.265 328.122 314.268 328.116C314.27 328.108 314.273 328.105 314.278 328.105C314.283 328.105 314.288 328.112 314.292 328.126C314.296 328.139 314.299 328.159 314.302 328.184C314.304 328.209 314.305 328.239 314.305 328.274C314.305 328.308 314.304 328.338 314.302 328.364C314.299 328.389 314.296 328.409 314.292 328.423C314.288 328.436 314.283 328.443 314.278 328.443C314.274 328.443 314.27 328.44 314.268 328.433C314.265 328.426 314.263 328.418 314.262 328.409C314.261 328.4 314.26 328.392 314.259 328.386H314.258V328.559H314.248ZM314.258 328.273C314.258 328.298 314.259 328.319 314.26 328.338C314.261 328.357 314.264 328.372 314.266 328.382C314.269 328.393 314.272 328.398 314.276 328.398C314.281 328.398 314.284 328.393 314.287 328.382C314.29 328.37 314.292 328.355 314.293 328.336C314.295 328.317 314.295 328.296 314.295 328.273C314.295 328.25 314.295 328.229 314.293 328.211C314.292 328.192 314.29 328.177 314.287 328.166C314.284 328.156 314.281 328.15 314.276 328.15C314.272 328.15 314.269 328.155 314.266 328.166C314.263 328.176 314.261 328.19 314.26 328.209C314.259 328.227 314.258 328.248 314.258 328.273Z" fill="white"/>
<path d="M314.347 328.443C314.341 328.443 314.336 328.436 314.331 328.422C314.327 328.408 314.324 328.389 314.321 328.363C314.319 328.338 314.317 328.308 314.317 328.275C314.317 328.24 314.319 328.211 314.321 328.185C314.324 328.16 314.327 328.14 314.331 328.126C314.336 328.112 314.341 328.105 314.347 328.105C314.353 328.105 314.358 328.112 314.362 328.126C314.367 328.14 314.37 328.16 314.373 328.185C314.375 328.211 314.376 328.24 314.376 328.275C314.376 328.308 314.375 328.338 314.373 328.363C314.37 328.389 314.367 328.408 314.362 328.422C314.358 328.436 314.353 328.443 314.347 328.443ZM314.347 328.398C314.351 328.398 314.355 328.392 314.358 328.381C314.361 328.369 314.363 328.354 314.364 328.336C314.366 328.317 314.366 328.296 314.366 328.275C314.366 328.253 314.366 328.232 314.364 328.213C314.363 328.194 314.361 328.179 314.358 328.168C314.355 328.156 314.351 328.15 314.347 328.15C314.342 328.15 314.339 328.156 314.336 328.168C314.333 328.179 314.331 328.194 314.33 328.213C314.328 328.232 314.327 328.253 314.327 328.275C314.327 328.296 314.328 328.317 314.33 328.336C314.331 328.354 314.333 328.369 314.336 328.381C314.339 328.392 314.342 328.398 314.347 328.398Z" fill="white"/>
<path d="M314.441 328.109V328.437H314.431V328.109H314.441ZM314.438 328.265V328.312C314.435 328.316 314.433 328.32 314.431 328.323C314.429 328.326 314.426 328.329 314.424 328.331C314.421 328.333 314.419 328.333 314.416 328.333C314.408 328.333 314.403 328.323 314.398 328.303C314.394 328.283 314.391 328.253 314.391 328.213V328.108H314.401V328.213C314.401 328.23 314.402 328.244 314.403 328.255C314.405 328.265 314.406 328.273 314.408 328.279C314.411 328.284 314.413 328.286 314.416 328.286C314.42 328.286 314.424 328.285 314.427 328.281C314.431 328.277 314.434 328.272 314.438 328.265Z" fill="white"/>
<path d="M314.503 328.25V328.297H314.467V328.25H314.503ZM314.47 328.109V328.437H314.46V328.109H314.47ZM314.511 328.109V328.437H314.501V328.109H314.511Z" fill="white"/>
<path d="M314.538 328.228H314.556C314.564 328.228 314.57 328.237 314.574 328.257C314.578 328.276 314.58 328.301 314.58 328.331C314.58 328.35 314.579 328.368 314.577 328.384C314.575 328.4 314.572 328.413 314.569 328.422C314.565 328.432 314.561 328.437 314.556 328.437H314.529V328.109H314.539V328.39H314.556C314.56 328.39 314.563 328.384 314.566 328.374C314.568 328.363 314.57 328.35 314.57 328.333C314.57 328.316 314.568 328.302 314.566 328.291C314.563 328.28 314.56 328.275 314.556 328.275H314.538V328.228ZM314.59 328.437V328.109H314.6V328.437H314.59Z" fill="white"/>
<path d="M314.628 328.362L314.659 328.109H314.671V328.437H314.661V328.183L314.63 328.437H314.618V328.109H314.628V328.362ZM314.653 328H314.662C314.662 328.023 314.66 328.042 314.657 328.056C314.654 328.071 314.65 328.078 314.644 328.078C314.639 328.078 314.635 328.071 314.632 328.056C314.629 328.042 314.627 328.023 314.627 328H314.636C314.636 328.011 314.637 328.021 314.638 328.029C314.639 328.038 314.641 328.042 314.644 328.042C314.647 328.042 314.649 328.038 314.651 328.029C314.652 328.021 314.653 328.011 314.653 328Z" fill="white"/>
<path d="M314.749 328.548V328H314.759V328.548H314.749ZM314.749 328.443C314.744 328.443 314.74 328.439 314.737 328.431C314.733 328.423 314.73 328.412 314.728 328.397C314.725 328.382 314.723 328.364 314.722 328.344C314.72 328.323 314.719 328.3 314.719 328.275C314.719 328.249 314.72 328.226 314.722 328.205C314.723 328.184 314.725 328.166 314.728 328.151C314.73 328.136 314.733 328.125 314.737 328.117C314.74 328.109 314.744 328.105 314.749 328.105H314.752V328.443H314.749ZM314.749 328.398H314.75V328.15H314.749C314.745 328.15 314.743 328.153 314.74 328.16C314.738 328.167 314.736 328.176 314.734 328.188C314.732 328.199 314.731 328.213 314.731 328.227C314.73 328.242 314.729 328.258 314.729 328.275C314.729 328.296 314.73 328.317 314.731 328.336C314.733 328.354 314.735 328.369 314.738 328.381C314.741 328.392 314.744 328.398 314.749 328.398ZM314.759 328.443H314.756V328.105H314.759C314.763 328.105 314.767 328.109 314.771 328.117C314.774 328.125 314.777 328.136 314.78 328.151C314.783 328.166 314.785 328.184 314.786 328.205C314.787 328.226 314.788 328.249 314.788 328.275C314.788 328.3 314.787 328.323 314.786 328.344C314.785 328.364 314.783 328.382 314.78 328.397C314.777 328.412 314.774 328.423 314.771 328.431C314.767 328.439 314.763 328.443 314.759 328.443ZM314.759 328.398C314.762 328.398 314.765 328.395 314.767 328.388C314.77 328.382 314.772 328.373 314.773 328.361C314.775 328.349 314.776 328.336 314.777 328.321C314.778 328.307 314.778 328.291 314.778 328.275C314.778 328.253 314.777 328.232 314.776 328.213C314.775 328.194 314.773 328.179 314.77 328.168C314.767 328.156 314.763 328.15 314.759 328.15H314.757V328.398H314.759Z" fill="white"/>
<path d="M314.807 328.559C314.806 328.559 314.804 328.559 314.803 328.557C314.802 328.556 314.801 328.555 314.8 328.553L314.803 328.509C314.805 328.512 314.807 328.513 314.809 328.512C314.811 328.512 314.813 328.507 314.814 328.5C314.816 328.492 314.817 328.48 314.818 328.464L314.82 328.438L314.796 328.109H314.807L314.825 328.37H314.825L314.843 328.109H314.854L314.827 328.484C314.825 328.501 314.824 328.515 314.822 328.526C314.82 328.538 314.818 328.546 314.816 328.551C314.813 328.557 314.81 328.559 314.807 328.559Z" fill="white"/>
<path d="M314.911 328.25V328.297H314.875V328.25H314.911ZM314.877 328.109V328.437H314.867V328.109H314.877ZM314.918 328.109V328.437H314.908V328.109H314.918Z" fill="white"/>
<path d="M314.929 328.53V328.39H314.935C314.936 328.383 314.937 328.375 314.938 328.367C314.939 328.359 314.94 328.349 314.941 328.338C314.942 328.327 314.942 328.313 314.943 328.297C314.943 328.281 314.944 328.262 314.944 328.239L314.946 328.109H314.987V328.39H314.997V328.53H314.987V328.437H314.939V328.53H314.929ZM314.946 328.39H314.977V328.156H314.955L314.954 328.239C314.953 328.273 314.952 328.303 314.951 328.328C314.95 328.354 314.948 328.374 314.946 328.39Z" fill="white"/>
<path d="M315.03 328.444C315.026 328.444 315.022 328.44 315.018 328.433C315.015 328.425 315.012 328.413 315.011 328.398C315.009 328.383 315.008 328.365 315.008 328.344C315.008 328.325 315.008 328.31 315.01 328.298C315.011 328.286 315.013 328.277 315.016 328.27C315.018 328.264 315.021 328.259 315.024 328.255C315.027 328.252 315.03 328.249 315.033 328.247C315.037 328.245 315.04 328.243 315.042 328.242C315.045 328.24 315.047 328.238 315.048 328.234C315.049 328.231 315.049 328.226 315.049 328.217V328.216C315.049 328.195 315.048 328.178 315.046 328.167C315.044 328.155 315.04 328.149 315.036 328.149C315.031 328.149 315.027 328.154 315.025 328.165C315.022 328.176 315.02 328.187 315.019 328.199L315.009 328.182C315.011 328.162 315.013 328.146 315.016 328.135C315.019 328.124 315.022 328.116 315.025 328.112C315.029 328.107 315.032 328.105 315.035 328.105C315.037 328.105 315.04 328.106 315.043 328.109C315.045 328.111 315.048 328.116 315.05 328.124C315.053 328.132 315.055 328.143 315.057 328.159C315.059 328.174 315.059 328.195 315.059 328.221V328.437H315.049V328.392H315.049C315.048 328.399 315.047 328.407 315.046 328.415C315.044 328.423 315.042 328.43 315.039 328.436C315.037 328.441 315.033 328.444 315.03 328.444ZM315.031 328.399C315.035 328.399 315.038 328.395 315.041 328.387C315.044 328.38 315.046 328.369 315.047 328.357C315.049 328.345 315.049 328.332 315.049 328.318V328.272C315.049 328.275 315.048 328.277 315.047 328.279C315.045 328.281 315.044 328.283 315.042 328.284C315.04 328.286 315.038 328.287 315.036 328.288C315.035 328.289 315.033 328.29 315.032 328.291C315.03 328.292 315.027 328.295 315.025 328.299C315.023 328.303 315.021 328.308 315.02 328.316C315.018 328.323 315.018 328.333 315.018 328.346C315.018 328.364 315.019 328.377 315.021 328.386C315.024 328.395 315.027 328.399 315.031 328.399Z" fill="white"/>
<path d="M315.113 328.368L315.136 328.109H315.145L315.117 328.437H315.109L315.081 328.109H315.091L315.113 328.368ZM315.088 328.109V328.437H315.078V328.109H315.088ZM315.139 328.437V328.109H315.148V328.437H315.139Z" fill="white"/>
<path d="M315.194 328.443C315.188 328.443 315.182 328.436 315.178 328.422C315.173 328.408 315.17 328.389 315.167 328.364C315.165 328.338 315.164 328.309 315.164 328.275C315.164 328.242 315.165 328.212 315.167 328.187C315.17 328.161 315.173 328.141 315.178 328.127C315.182 328.112 315.187 328.105 315.193 328.105C315.196 328.105 315.2 328.108 315.203 328.113C315.206 328.119 315.209 328.128 315.212 328.141C315.215 328.154 315.217 328.171 315.218 328.191C315.22 328.212 315.221 328.238 315.221 328.269V328.29H315.171V328.246H315.211C315.211 328.228 315.21 328.211 315.208 328.197C315.207 328.182 315.205 328.171 315.202 328.163C315.2 328.154 315.197 328.15 315.193 328.15C315.189 328.15 315.186 328.155 315.183 328.165C315.18 328.175 315.178 328.188 315.176 328.203C315.174 328.219 315.174 328.236 315.174 328.254V328.283C315.174 328.308 315.175 328.329 315.176 328.346C315.178 328.363 315.18 328.376 315.183 328.385C315.186 328.394 315.19 328.398 315.194 328.398C315.197 328.398 315.199 328.396 315.201 328.393C315.203 328.389 315.205 328.383 315.207 328.376C315.208 328.368 315.209 328.358 315.21 328.347L315.22 328.361C315.219 328.377 315.217 328.392 315.215 328.404C315.212 328.417 315.209 328.426 315.206 328.433C315.202 328.44 315.198 328.443 315.194 328.443Z" fill="white"/>
<path d="M315.279 328.25V328.297H315.244V328.25H315.279ZM315.246 328.109V328.437H315.236V328.109H315.246ZM315.287 328.109V328.437H315.277V328.109H315.287Z" fill="white"/>
<path d="M315.296 328.156V328.109H315.349V328.156H315.328V328.437H315.318V328.156H315.296Z" fill="white"/>
<path d="M315.397 328.437V328.109H315.423C315.43 328.109 315.436 328.117 315.44 328.133C315.444 328.149 315.446 328.17 315.446 328.196C315.446 328.216 315.445 328.231 315.443 328.242C315.44 328.253 315.437 328.26 315.434 328.264C315.436 328.266 315.438 328.27 315.441 328.277C315.443 328.284 315.445 328.293 315.446 328.305C315.448 328.317 315.449 328.332 315.449 328.349C315.449 328.366 315.448 328.38 315.446 328.394C315.444 328.407 315.442 328.417 315.439 328.425C315.436 328.433 315.432 328.437 315.428 328.437H315.397ZM315.406 328.391H315.428C315.431 328.391 315.434 328.386 315.436 328.378C315.438 328.37 315.438 328.359 315.438 328.344C315.438 328.328 315.438 328.314 315.436 328.305C315.434 328.295 315.431 328.29 315.428 328.29H315.406V328.391ZM315.406 328.246H315.423C315.426 328.246 315.428 328.245 315.43 328.241C315.432 328.237 315.434 328.232 315.435 328.225C315.436 328.218 315.436 328.209 315.436 328.2C315.436 328.186 315.435 328.175 315.433 328.167C315.431 328.159 315.427 328.155 315.423 328.155H315.406V328.246Z" fill="white"/>
<path d="M315.49 328.443C315.484 328.443 315.479 328.436 315.474 328.422C315.47 328.407 315.467 328.387 315.464 328.362C315.462 328.336 315.461 328.307 315.461 328.275C315.461 328.241 315.462 328.212 315.464 328.187C315.467 328.161 315.47 328.141 315.475 328.127C315.479 328.112 315.484 328.105 315.49 328.105C315.494 328.105 315.499 328.109 315.502 328.118C315.506 328.126 315.509 328.138 315.511 328.153C315.514 328.169 315.515 328.187 315.516 328.207H315.506C315.505 328.192 315.503 328.179 315.501 328.168C315.498 328.156 315.494 328.15 315.49 328.15C315.486 328.15 315.483 328.155 315.48 328.165C315.477 328.176 315.475 328.19 315.473 328.208C315.471 328.227 315.471 328.248 315.471 328.273C315.471 328.298 315.471 328.32 315.473 328.339C315.475 328.358 315.477 328.372 315.48 328.383C315.483 328.393 315.486 328.398 315.49 328.398C315.493 328.398 315.495 328.396 315.497 328.391C315.499 328.387 315.501 328.38 315.502 328.372C315.504 328.363 315.505 328.353 315.506 328.341H315.516C315.515 328.36 315.514 328.378 315.511 328.393C315.509 328.409 315.506 328.421 315.503 328.43C315.499 328.439 315.495 328.443 315.49 328.443Z" fill="white"/>
<path d="M315.557 328.443C315.551 328.443 315.546 328.436 315.541 328.422C315.537 328.408 315.533 328.389 315.531 328.364C315.528 328.338 315.527 328.309 315.527 328.275C315.527 328.242 315.528 328.212 315.531 328.187C315.533 328.161 315.537 328.141 315.541 328.127C315.545 328.112 315.55 328.105 315.556 328.105C315.56 328.105 315.563 328.108 315.566 328.113C315.57 328.119 315.573 328.128 315.575 328.141C315.578 328.154 315.58 328.171 315.582 328.191C315.583 328.212 315.584 328.238 315.584 328.269V328.29H315.534V328.246H315.574C315.574 328.228 315.573 328.211 315.572 328.197C315.57 328.182 315.568 328.171 315.566 328.163C315.563 328.154 315.56 328.15 315.556 328.15C315.552 328.15 315.549 328.155 315.546 328.165C315.543 328.175 315.541 328.188 315.539 328.203C315.538 328.219 315.537 328.236 315.537 328.254V328.283C315.537 328.308 315.538 328.329 315.54 328.346C315.541 328.363 315.544 328.376 315.547 328.385C315.55 328.394 315.553 328.398 315.557 328.398C315.56 328.398 315.562 328.396 315.564 328.393C315.567 328.389 315.568 328.383 315.57 328.376C315.571 328.368 315.573 328.358 315.574 328.347L315.583 328.361C315.582 328.377 315.58 328.392 315.578 328.404C315.576 328.417 315.573 328.426 315.569 328.433C315.566 328.44 315.562 328.443 315.557 328.443Z" fill="white"/>
<path d="M315.639 328.109V328.156H315.609V328.437H315.599V328.109H315.639Z" fill="white"/>
<path d="M315.677 328.443C315.671 328.443 315.666 328.436 315.661 328.422C315.657 328.408 315.654 328.389 315.651 328.363C315.649 328.338 315.647 328.308 315.647 328.275C315.647 328.24 315.649 328.211 315.651 328.185C315.654 328.16 315.657 328.14 315.661 328.126C315.666 328.112 315.671 328.105 315.677 328.105C315.683 328.105 315.688 328.112 315.692 328.126C315.697 328.14 315.7 328.16 315.703 328.185C315.705 328.211 315.706 328.24 315.706 328.275C315.706 328.308 315.705 328.338 315.703 328.363C315.7 328.389 315.697 328.408 315.692 328.422C315.688 328.436 315.683 328.443 315.677 328.443ZM315.677 328.398C315.681 328.398 315.685 328.392 315.688 328.381C315.691 328.369 315.693 328.354 315.694 328.336C315.696 328.317 315.696 328.296 315.696 328.275C315.696 328.253 315.696 328.232 315.694 328.213C315.693 328.194 315.691 328.179 315.688 328.168C315.685 328.156 315.681 328.15 315.677 328.15C315.672 328.15 315.669 328.156 315.666 328.168C315.663 328.179 315.661 328.194 315.659 328.213C315.658 328.232 315.657 328.253 315.657 328.275C315.657 328.296 315.658 328.317 315.659 328.336C315.661 328.354 315.663 328.369 315.666 328.381C315.669 328.392 315.672 328.398 315.677 328.398Z" fill="white"/>
<path d="M315.761 328.559C315.76 328.559 315.758 328.559 315.757 328.557C315.755 328.556 315.755 328.555 315.754 328.553L315.757 328.509C315.759 328.512 315.761 328.513 315.763 328.512C315.765 328.512 315.766 328.507 315.768 328.5C315.769 328.492 315.771 328.48 315.772 328.464L315.774 328.438L315.75 328.109H315.761L315.779 328.37H315.779L315.797 328.109H315.808L315.78 328.484C315.779 328.501 315.778 328.515 315.776 328.526C315.774 328.538 315.772 328.546 315.769 328.551C315.767 328.557 315.764 328.559 315.761 328.559Z" fill="white"/>
<path d="M315.81 328.437V328.39H315.812C315.814 328.39 315.816 328.388 315.817 328.384C315.818 328.38 315.819 328.373 315.82 328.363C315.821 328.353 315.822 328.34 315.822 328.322C315.822 328.304 315.823 328.282 315.823 328.254L315.824 328.109H315.867V328.437H315.857V328.156H315.834L315.833 328.273C315.832 328.3 315.832 328.323 315.831 328.344C315.831 328.364 315.829 328.381 315.828 328.395C315.827 328.409 315.825 328.419 315.822 328.426C315.82 328.433 315.817 328.437 315.813 328.437H315.81Z" fill="white"/>
<path d="M315.894 328.228H315.913C315.92 328.228 315.926 328.237 315.93 328.257C315.934 328.276 315.936 328.301 315.936 328.331C315.936 328.35 315.935 328.368 315.934 328.384C315.932 328.4 315.929 328.413 315.926 328.422C315.922 328.432 315.918 328.437 315.913 328.437H315.886V328.109H315.896V328.39H315.913C315.917 328.39 315.92 328.384 315.923 328.374C315.925 328.363 315.926 328.35 315.926 328.333C315.926 328.316 315.925 328.302 315.923 328.291C315.92 328.28 315.917 328.275 315.913 328.275H315.894V328.228Z" fill="white"/>
<path d="M315.991 328.437V328.155H315.973C315.969 328.155 315.966 328.16 315.964 328.169C315.962 328.178 315.961 328.19 315.961 328.206C315.961 328.222 315.962 328.234 315.964 328.243C315.966 328.252 315.969 328.257 315.972 328.257H315.993V328.304H315.972C315.968 328.304 315.964 328.3 315.961 328.292C315.958 328.284 315.955 328.273 315.953 328.258C315.952 328.244 315.951 328.226 315.951 328.206C315.951 328.186 315.952 328.169 315.954 328.154C315.955 328.14 315.958 328.129 315.961 328.121C315.965 328.113 315.969 328.109 315.973 328.109H316V328.437H315.991ZM315.947 328.437L315.966 328.274H315.977L315.958 328.437H315.947Z" fill="white"/>
<path d="M314.019 328.966L314.02 328.872L314.004 328.922L314 328.887L314.017 328.843L314 328.8L314.004 328.764L314.02 328.814L314.019 328.72H314.027L314.027 328.814L314.042 328.764L314.046 328.8L314.03 328.843L314.046 328.887L314.042 328.922L314.027 328.872L314.027 328.966H314.019Z" fill="white"/>
<path d="M314.164 329.157V328.72H314.174V328.915H314.22V328.72H314.231V329.157H314.22V328.962H314.174V329.157H314.164Z" fill="white"/>
<path d="M314.269 329.165C314.265 329.165 314.262 329.161 314.258 329.153C314.255 329.145 314.252 329.133 314.25 329.119C314.248 329.103 314.247 329.085 314.247 329.064C314.247 329.045 314.248 329.03 314.249 329.018C314.251 329.007 314.253 328.997 314.255 328.991C314.258 328.984 314.26 328.979 314.263 328.976C314.266 328.972 314.269 328.97 314.272 328.968C314.276 328.965 314.28 328.963 314.282 328.962C314.284 328.96 314.286 328.958 314.287 328.955C314.289 328.952 314.289 328.946 314.289 328.938V328.936C314.289 328.915 314.288 328.899 314.286 328.887C314.283 328.875 314.28 328.87 314.275 328.87C314.271 328.87 314.267 328.875 314.264 328.885C314.262 328.896 314.26 328.907 314.259 328.919L314.249 328.902C314.251 328.882 314.253 328.867 314.256 328.855C314.259 328.844 314.262 328.836 314.265 328.832C314.269 328.827 314.272 328.825 314.275 328.825C314.277 328.825 314.28 328.826 314.282 328.829C314.285 328.831 314.288 328.837 314.29 328.844C314.293 328.852 314.295 328.863 314.297 328.879C314.298 328.894 314.299 328.915 314.299 328.941V329.157H314.289V329.113H314.289C314.288 329.12 314.287 329.127 314.285 329.135C314.284 329.143 314.282 329.15 314.279 329.156C314.276 329.162 314.273 329.165 314.269 329.165ZM314.271 329.119C314.275 329.119 314.278 329.115 314.281 329.108C314.284 329.1 314.286 329.09 314.287 329.077C314.288 329.065 314.289 329.052 314.289 329.038V328.992C314.289 328.995 314.288 328.997 314.286 328.999C314.285 329.001 314.283 329.003 314.281 329.005C314.28 329.006 314.278 329.007 314.276 329.009C314.274 329.01 314.273 329.01 314.272 329.011C314.269 329.013 314.267 329.016 314.265 329.019C314.262 329.023 314.261 329.029 314.259 329.036C314.258 329.044 314.257 329.054 314.257 329.067C314.257 329.084 314.258 329.097 314.261 329.106C314.264 329.115 314.267 329.119 314.271 329.119Z" fill="white"/>
<path d="M314.31 329.251V329.11H314.316C314.317 329.103 314.318 329.095 314.319 329.087C314.32 329.079 314.321 329.07 314.322 329.059C314.322 329.047 314.323 329.034 314.324 329.018C314.324 329.001 314.324 328.982 314.325 328.959L314.327 328.829H314.368V329.11H314.378V329.251H314.368V329.157H314.32V329.251H314.31ZM314.327 329.11H314.358V328.876H314.336L314.335 328.959C314.334 328.993 314.333 329.023 314.332 329.049C314.331 329.074 314.329 329.095 314.327 329.11Z" fill="white"/>
<path d="M314.419 329.164C314.412 329.164 314.407 329.157 314.402 329.143C314.398 329.129 314.394 329.109 314.392 329.084C314.39 329.059 314.388 329.029 314.388 328.996C314.388 328.962 314.39 328.933 314.392 328.907C314.394 328.881 314.398 328.861 314.402 328.847C314.407 328.832 314.412 328.825 314.418 328.825C314.421 328.825 314.424 328.828 314.428 328.834C314.431 328.839 314.434 328.849 314.437 328.861C314.439 328.874 314.441 328.891 314.443 328.912C314.445 328.933 314.445 328.958 314.445 328.989V329.01H314.396V328.967H314.435C314.435 328.948 314.435 328.932 314.433 328.917C314.432 328.903 314.43 328.891 314.427 328.883C314.424 328.875 314.421 328.87 314.418 328.87C314.414 328.87 314.41 328.875 314.407 328.885C314.404 328.895 314.402 328.908 314.401 328.924C314.399 328.939 314.398 328.956 314.398 328.974V329.003C314.398 329.028 314.399 329.049 314.401 329.066C314.403 329.083 314.405 329.096 314.408 329.105C314.411 329.114 314.415 329.119 314.419 329.119C314.421 329.119 314.424 329.117 314.426 329.113C314.428 329.109 314.43 329.103 314.431 329.096C314.433 329.088 314.434 329.079 314.435 329.067L314.444 329.081C314.443 329.097 314.442 329.112 314.439 329.124C314.437 329.137 314.434 329.147 314.431 329.153C314.427 329.16 314.423 329.164 314.419 329.164Z" fill="white"/>
<path d="M314.455 329.157L314.481 328.991L314.455 328.829H314.467L314.489 328.969H314.494V328.829H314.504V328.969H314.509L314.531 328.829H314.543L314.517 328.991L314.543 329.157H314.531L314.509 329.016H314.504V329.157H314.494V329.016H314.489L314.467 329.157H314.455Z" fill="white"/>
<path d="M314.601 328.97V329.017H314.565V328.97H314.601ZM314.567 328.829V329.157H314.557V328.829H314.567ZM314.608 328.829V329.157H314.598V328.829H314.608Z" fill="white"/>
<path d="M314.646 329.165C314.641 329.165 314.638 329.161 314.634 329.153C314.631 329.145 314.628 329.133 314.626 329.119C314.624 329.103 314.623 329.085 314.623 329.064C314.623 329.045 314.624 329.03 314.626 329.018C314.627 329.007 314.629 328.997 314.631 328.991C314.634 328.984 314.637 328.979 314.64 328.976C314.643 328.972 314.646 328.97 314.649 328.968C314.652 328.965 314.656 328.963 314.658 328.962C314.661 328.96 314.662 328.958 314.664 328.955C314.665 328.952 314.665 328.946 314.665 328.938V328.936C314.665 328.915 314.664 328.899 314.662 328.887C314.66 328.875 314.656 328.87 314.652 328.87C314.647 328.87 314.643 328.875 314.64 328.885C314.638 328.896 314.636 328.907 314.635 328.919L314.625 328.902C314.627 328.882 314.629 328.867 314.632 328.855C314.635 328.844 314.638 328.836 314.641 328.832C314.645 328.827 314.648 328.825 314.651 328.825C314.653 328.825 314.656 328.826 314.658 328.829C314.661 328.831 314.664 328.837 314.666 328.844C314.669 328.852 314.671 328.863 314.673 328.879C314.674 328.894 314.675 328.915 314.675 328.941V329.157H314.665V329.113H314.665C314.664 329.12 314.663 329.127 314.661 329.135C314.66 329.143 314.658 329.15 314.655 329.156C314.652 329.162 314.649 329.165 314.646 329.165ZM314.647 329.119C314.651 329.119 314.654 329.115 314.657 329.108C314.66 329.1 314.662 329.09 314.663 329.077C314.665 329.065 314.665 329.052 314.665 329.038V328.992C314.665 328.995 314.664 328.997 314.662 328.999C314.661 329.001 314.659 329.003 314.658 329.005C314.656 329.006 314.654 329.007 314.652 329.009C314.651 329.01 314.649 329.01 314.648 329.011C314.645 329.013 314.643 329.016 314.641 329.019C314.639 329.023 314.637 329.029 314.635 329.036C314.634 329.044 314.633 329.054 314.633 329.067C314.633 329.084 314.635 329.097 314.637 329.106C314.64 329.115 314.643 329.119 314.647 329.119Z" fill="white"/>
<path d="M314.732 329.157V328.876H314.715C314.711 328.876 314.708 328.88 314.706 328.889C314.704 328.898 314.703 328.911 314.703 328.927C314.703 328.942 314.704 328.955 314.706 328.964C314.708 328.973 314.71 328.977 314.714 328.977H314.735V329.024H314.714C314.71 329.024 314.706 329.02 314.703 329.012C314.699 329.004 314.697 328.993 314.695 328.979C314.694 328.964 314.693 328.947 314.693 328.927C314.693 328.906 314.694 328.889 314.695 328.875C314.697 328.86 314.7 328.849 314.703 328.841C314.707 328.833 314.711 328.829 314.715 328.829H314.742V329.157H314.732ZM314.689 329.157L314.708 328.994H314.718L314.7 329.157H314.689Z" fill="white"/>
<path d="M314.82 329.164C314.814 329.164 314.809 329.157 314.805 329.143C314.8 329.129 314.797 329.109 314.794 329.084C314.792 329.058 314.791 329.029 314.791 328.995C314.791 328.961 314.792 328.931 314.794 328.906C314.797 328.88 314.8 328.86 314.805 328.846C314.809 328.832 314.814 328.825 314.82 328.825C314.826 328.825 314.831 328.832 314.835 328.846C314.84 328.86 314.843 328.88 314.846 328.906C314.848 328.931 314.849 328.961 314.849 328.995C314.849 329.029 314.848 329.058 314.846 329.084C314.843 329.109 314.84 329.129 314.835 329.143C314.831 329.157 314.826 329.164 314.82 329.164ZM314.82 329.119C314.824 329.119 314.828 329.113 314.831 329.101C314.834 329.09 314.836 329.075 314.837 329.056C314.839 329.037 314.839 329.017 314.839 328.995C314.839 328.973 314.839 328.953 314.837 328.934C314.836 328.915 314.834 328.9 314.831 328.888C314.828 328.876 314.824 328.87 314.82 328.87C314.816 328.87 314.812 328.876 314.809 328.888C314.806 328.9 314.804 328.915 314.803 328.934C314.801 328.953 314.801 328.973 314.801 328.995C314.801 329.017 314.801 329.037 314.803 329.056C314.804 329.075 314.806 329.09 314.809 329.101C314.812 329.113 314.816 329.119 314.82 329.119Z" fill="white"/>
<path d="M314.891 329.164C314.885 329.164 314.88 329.156 314.875 329.142C314.871 329.127 314.867 329.108 314.865 329.082C314.863 329.057 314.861 329.028 314.861 328.995C314.861 328.962 314.863 328.932 314.865 328.907C314.868 328.881 314.871 328.861 314.875 328.847C314.88 328.832 314.885 328.825 314.891 328.825C314.895 328.825 314.899 328.829 314.903 328.838C314.907 328.847 314.91 328.858 314.912 328.874C314.914 328.889 314.916 328.907 314.916 328.928H314.906C314.906 328.913 314.904 328.899 314.901 328.888C314.899 328.876 314.895 328.87 314.891 328.87C314.887 328.87 314.884 328.876 314.881 328.886C314.878 328.896 314.876 328.91 314.874 328.929C314.872 328.947 314.871 328.968 314.871 328.993C314.871 329.018 314.872 329.041 314.874 329.059C314.875 329.078 314.878 329.093 314.881 329.103C314.884 329.113 314.887 329.119 314.891 329.119C314.893 329.119 314.896 329.116 314.898 329.112C314.9 329.107 314.902 329.101 314.903 329.092C314.905 329.084 314.906 329.073 314.906 329.061H314.916C314.916 329.081 314.914 329.098 314.912 329.114C314.91 329.129 314.907 329.141 314.903 329.15C314.9 329.159 314.896 329.164 314.891 329.164Z" fill="white"/>
<path d="M314.974 328.97V329.017H314.939V328.97H314.974ZM314.941 328.829V329.157H314.931V328.829H314.941ZM314.982 328.829V329.157H314.972V328.829H314.982Z" fill="white"/>
<path d="M315.026 329.164C315.021 329.164 315.015 329.157 315.011 329.143C315.007 329.129 315.003 329.109 315.001 329.084C314.998 329.058 314.997 329.029 314.997 328.995C314.997 328.961 314.998 328.931 315.001 328.906C315.003 328.88 315.007 328.86 315.011 328.846C315.015 328.832 315.021 328.825 315.026 328.825C315.032 328.825 315.037 328.832 315.042 328.846C315.046 328.86 315.05 328.88 315.052 328.906C315.055 328.931 315.056 328.961 315.056 328.995C315.056 329.029 315.055 329.058 315.052 329.084C315.05 329.109 315.046 329.129 315.042 329.143C315.037 329.157 315.032 329.164 315.026 329.164ZM315.026 329.119C315.031 329.119 315.035 329.113 315.037 329.101C315.04 329.09 315.042 329.075 315.044 329.056C315.045 329.037 315.046 329.017 315.046 328.995C315.046 328.973 315.045 328.953 315.044 328.934C315.042 328.915 315.04 328.9 315.037 328.888C315.035 328.876 315.031 328.87 315.026 328.87C315.022 328.87 315.018 328.876 315.016 328.888C315.013 328.9 315.011 328.915 315.009 328.934C315.008 328.953 315.007 328.973 315.007 328.995C315.007 329.017 315.008 329.037 315.009 329.056C315.011 329.075 315.013 329.09 315.016 329.101C315.018 329.113 315.022 329.119 315.026 329.119Z" fill="white"/>
<path d="M315.071 329.157V328.829H315.098C315.105 328.829 315.11 328.837 315.114 328.853C315.118 328.869 315.12 328.89 315.12 328.916C315.12 328.936 315.119 328.952 315.117 328.963C315.115 328.973 315.112 328.981 315.108 328.985C315.11 328.986 315.113 328.991 315.115 328.997C315.117 329.004 315.119 329.014 315.121 329.026C315.122 329.037 315.123 329.052 315.123 329.069C315.123 329.086 315.122 329.101 315.12 329.114C315.119 329.127 315.116 329.138 315.113 329.145C315.11 329.153 315.106 329.157 315.102 329.157H315.071ZM315.081 329.111H315.102C315.105 329.111 315.108 329.107 315.11 329.098C315.112 329.09 315.113 329.079 315.113 329.065C315.113 329.048 315.112 329.035 315.11 329.025C315.108 329.015 315.105 329.01 315.102 329.01H315.081V329.111ZM315.081 328.967H315.098C315.1 328.967 315.103 328.965 315.104 328.961C315.106 328.957 315.108 328.952 315.109 328.945C315.11 328.938 315.11 328.93 315.11 328.92C315.11 328.906 315.109 328.895 315.107 328.887C315.105 328.879 315.102 328.876 315.098 328.876H315.081V328.967Z" fill="white"/>
<path d="M315.157 329.165C315.153 329.165 315.149 329.161 315.146 329.153C315.142 329.145 315.14 329.133 315.138 329.119C315.136 329.103 315.135 329.085 315.135 329.064C315.135 329.045 315.136 329.03 315.137 329.018C315.138 329.007 315.14 328.997 315.143 328.991C315.145 328.984 315.148 328.979 315.151 328.976C315.154 328.972 315.157 328.97 315.16 328.968C315.164 328.965 315.167 328.963 315.17 328.962C315.172 328.96 315.174 328.958 315.175 328.955C315.176 328.952 315.177 328.946 315.177 328.938V328.936C315.177 328.915 315.176 328.899 315.173 328.887C315.171 328.875 315.168 328.87 315.163 328.87C315.158 328.87 315.155 328.875 315.152 328.885C315.149 328.896 315.147 328.907 315.146 328.919L315.137 328.902C315.138 328.882 315.141 328.867 315.143 328.855C315.146 328.844 315.149 328.836 315.153 328.832C315.156 328.827 315.159 328.825 315.163 328.825C315.165 328.825 315.167 328.826 315.17 328.829C315.173 328.831 315.175 328.837 315.178 328.844C315.18 328.852 315.182 328.863 315.184 328.879C315.186 328.894 315.187 328.915 315.187 328.941V329.157H315.177V329.113H315.176C315.175 329.12 315.174 329.127 315.173 329.135C315.171 329.143 315.169 329.15 315.166 329.156C315.164 329.162 315.161 329.165 315.157 329.165ZM315.158 329.119C315.162 329.119 315.166 329.115 315.168 329.108C315.171 329.1 315.173 329.09 315.175 329.077C315.176 329.065 315.177 329.052 315.177 329.038V328.992C315.176 328.995 315.175 328.997 315.174 328.999C315.172 329.001 315.171 329.003 315.169 329.005C315.167 329.006 315.165 329.007 315.164 329.009C315.162 329.01 315.161 329.01 315.159 329.011C315.157 329.013 315.154 329.016 315.152 329.019C315.15 329.023 315.148 329.029 315.147 329.036C315.145 329.044 315.145 329.054 315.145 329.067C315.145 329.084 315.146 329.097 315.149 329.106C315.151 329.115 315.154 329.119 315.158 329.119Z" fill="white"/>
<path d="M315.231 329.251V329.11H315.237C315.238 329.103 315.239 329.095 315.24 329.087C315.241 329.079 315.242 329.07 315.243 329.059C315.243 329.047 315.244 329.034 315.244 329.018C315.245 329.001 315.245 328.982 315.246 328.959L315.248 328.829H315.289V329.11H315.299V329.251H315.289V329.157H315.241V329.251H315.231ZM315.248 329.11H315.279V328.876H315.257L315.256 328.959C315.255 328.993 315.254 329.023 315.253 329.049C315.252 329.074 315.25 329.095 315.248 329.11Z" fill="white"/>
<path d="M315.307 329.157V329.11H315.309C315.311 329.11 315.313 329.108 315.314 329.104C315.315 329.1 315.316 329.093 315.317 329.084C315.318 329.074 315.318 329.06 315.319 329.042C315.319 329.024 315.32 329.002 315.32 328.974L315.321 328.829H315.364V329.157H315.354V328.876H315.331L315.329 328.993C315.329 329.02 315.329 329.044 315.328 329.064C315.327 329.084 315.326 329.102 315.325 329.115C315.323 329.129 315.321 329.139 315.319 329.146C315.317 329.153 315.314 329.157 315.31 329.157H315.307Z" fill="white"/>
<path d="M315.422 329.157V328.876H315.404C315.4 328.876 315.397 328.88 315.395 328.889C315.393 328.898 315.392 328.911 315.392 328.927C315.392 328.942 315.393 328.955 315.395 328.964C315.397 328.973 315.4 328.977 315.403 328.977H315.424V329.024H315.403C315.399 329.024 315.395 329.02 315.392 329.012C315.389 329.004 315.386 328.993 315.384 328.979C315.383 328.964 315.382 328.947 315.382 328.927C315.382 328.906 315.383 328.889 315.385 328.875C315.386 328.86 315.389 328.849 315.392 328.841C315.396 328.833 315.4 328.829 315.404 328.829H315.431V329.157H315.422ZM315.378 329.157L315.397 328.994H315.408L315.389 329.157H315.378Z" fill="white"/>
<path d="M315.483 329.28V328.829H315.492V328.881H315.494C315.494 328.876 315.495 328.869 315.497 328.86C315.498 328.851 315.5 328.843 315.502 328.836C315.505 328.829 315.508 328.825 315.512 328.825C315.518 328.825 315.523 328.832 315.527 328.846C315.531 328.86 315.534 328.879 315.536 328.905C315.539 328.93 315.54 328.96 315.54 328.994C315.54 329.029 315.539 329.059 315.536 329.084C315.534 329.109 315.531 329.129 315.527 329.143C315.523 329.157 315.518 329.164 315.512 329.164C315.508 329.164 315.505 329.16 315.502 329.153C315.5 329.146 315.498 329.138 315.497 329.129C315.495 329.12 315.494 329.113 315.494 329.107H315.493V329.28H315.483ZM315.493 328.993C315.493 329.018 315.493 329.04 315.495 329.059C315.496 329.077 315.498 329.092 315.501 329.103C315.504 329.113 315.507 329.119 315.511 329.119C315.515 329.119 315.519 329.113 315.522 329.102C315.524 329.091 315.526 329.076 315.528 329.057C315.529 329.038 315.53 329.016 315.53 328.993C315.53 328.97 315.529 328.949 315.528 328.931C315.527 328.912 315.524 328.898 315.522 328.887C315.519 328.876 315.515 328.87 315.511 328.87C315.507 328.87 315.504 328.876 315.501 328.886C315.498 328.896 315.496 328.911 315.495 328.929C315.493 328.947 315.493 328.969 315.493 328.993Z" fill="white"/>
<path d="M315.582 329.164C315.576 329.164 315.571 329.157 315.566 329.143C315.562 329.129 315.558 329.109 315.556 329.084C315.553 329.058 315.552 329.029 315.552 328.995C315.552 328.961 315.553 328.931 315.556 328.906C315.558 328.88 315.562 328.86 315.566 328.846C315.571 328.832 315.576 328.825 315.582 328.825C315.587 328.825 315.593 328.832 315.597 328.846C315.601 328.86 315.605 328.88 315.607 328.906C315.61 328.931 315.611 328.961 315.611 328.995C315.611 329.029 315.61 329.058 315.607 329.084C315.605 329.109 315.601 329.129 315.597 329.143C315.593 329.157 315.587 329.164 315.582 329.164ZM315.582 329.119C315.586 329.119 315.59 329.113 315.593 329.101C315.595 329.09 315.598 329.075 315.599 329.056C315.6 329.037 315.601 329.017 315.601 328.995C315.601 328.973 315.6 328.953 315.599 328.934C315.598 328.915 315.595 328.9 315.593 328.888C315.59 328.876 315.586 328.87 315.582 328.87C315.577 328.87 315.573 328.876 315.571 328.888C315.568 328.9 315.566 328.915 315.564 328.934C315.563 328.953 315.562 328.973 315.562 328.995C315.562 329.017 315.563 329.037 315.564 329.056C315.566 329.075 315.568 329.09 315.571 329.101C315.573 329.113 315.577 329.119 315.582 329.119Z" fill="white"/>
<path d="M315.652 329.164C315.646 329.164 315.641 329.156 315.637 329.142C315.632 329.127 315.629 329.108 315.627 329.082C315.624 329.057 315.623 329.028 315.623 328.995C315.623 328.962 315.624 328.932 315.627 328.907C315.629 328.881 315.633 328.861 315.637 328.847C315.641 328.832 315.646 328.825 315.652 328.825C315.657 328.825 315.661 328.829 315.665 328.838C315.668 328.847 315.671 328.858 315.674 328.874C315.676 328.889 315.677 328.907 315.678 328.928H315.668C315.667 328.913 315.666 328.899 315.663 328.888C315.66 328.876 315.657 328.87 315.652 328.87C315.649 328.87 315.645 328.876 315.642 328.886C315.639 328.896 315.637 328.91 315.635 328.929C315.634 328.947 315.633 328.968 315.633 328.993C315.633 329.018 315.634 329.041 315.635 329.059C315.637 329.078 315.639 329.093 315.642 329.103C315.645 329.113 315.649 329.119 315.652 329.119C315.655 329.119 315.657 329.116 315.66 329.112C315.662 329.107 315.663 329.101 315.665 329.092C315.666 329.084 315.667 329.073 315.668 329.061H315.678C315.677 329.081 315.676 329.098 315.674 329.114C315.672 329.129 315.669 329.141 315.665 329.15C315.661 329.159 315.657 329.164 315.652 329.164Z" fill="white"/>
<path d="M315.687 328.876V328.829H315.74V328.876H315.719V329.157H315.709V328.876H315.687Z" fill="white"/>
<path d="M315.77 329.165C315.766 329.165 315.763 329.161 315.759 329.153C315.756 329.145 315.753 329.133 315.751 329.119C315.749 329.103 315.748 329.085 315.748 329.064C315.748 329.045 315.749 329.03 315.75 329.018C315.752 329.007 315.754 328.997 315.756 328.991C315.759 328.984 315.761 328.979 315.764 328.976C315.767 328.972 315.77 328.97 315.773 328.968C315.777 328.965 315.781 328.963 315.783 328.962C315.785 328.96 315.787 328.958 315.788 328.955C315.79 328.952 315.79 328.946 315.79 328.938V328.936C315.79 328.915 315.789 328.899 315.787 328.887C315.784 328.875 315.781 328.87 315.776 328.87C315.772 328.87 315.768 328.875 315.765 328.885C315.763 328.896 315.761 328.907 315.76 328.919L315.75 328.902C315.752 328.882 315.754 328.867 315.757 328.855C315.76 328.844 315.763 328.836 315.766 328.832C315.77 328.827 315.773 328.825 315.776 328.825C315.778 328.825 315.781 328.826 315.783 328.829C315.786 328.831 315.789 328.837 315.791 328.844C315.794 328.852 315.796 328.863 315.798 328.879C315.799 328.894 315.8 328.915 315.8 328.941V329.157H315.79V329.113H315.79C315.789 329.12 315.788 329.127 315.786 329.135C315.785 329.143 315.783 329.15 315.78 329.156C315.777 329.162 315.774 329.165 315.77 329.165ZM315.772 329.119C315.776 329.119 315.779 329.115 315.782 329.108C315.785 329.1 315.787 329.09 315.788 329.077C315.789 329.065 315.79 329.052 315.79 329.038V328.992C315.79 328.995 315.789 328.997 315.787 328.999C315.786 329.001 315.784 329.003 315.782 329.005C315.781 329.006 315.779 329.007 315.777 329.009C315.775 329.01 315.774 329.01 315.773 329.011C315.77 329.013 315.768 329.016 315.766 329.019C315.763 329.023 315.762 329.029 315.76 329.036C315.759 329.044 315.758 329.054 315.758 329.067C315.758 329.084 315.759 329.097 315.762 329.106C315.765 329.115 315.768 329.119 315.772 329.119Z" fill="white"/>
<path d="M314.019 329.686L314.02 329.592L314.004 329.643L314 329.607L314.017 329.563L314 329.52L314.004 329.484L314.02 329.534L314.019 329.441H314.027L314.027 329.534L314.042 329.484L314.046 329.52L314.03 329.563L314.046 329.607L314.042 329.643L314.027 329.592L314.027 329.686H314.019Z" fill="white"/>
<path d="M314.156 329.877V329.829H314.159C314.162 329.829 314.165 329.823 314.167 329.811C314.169 329.799 314.171 329.781 314.171 329.755C314.172 329.729 314.173 329.694 314.173 329.651L314.175 329.441H314.227V329.877H314.217V329.488H314.185L314.183 329.661C314.183 329.707 314.182 329.746 314.181 329.778C314.18 329.81 314.177 329.835 314.174 329.852C314.171 329.869 314.166 329.877 314.159 329.877H314.156Z" fill="white"/>
<path d="M314.273 329.884C314.268 329.884 314.262 329.877 314.258 329.863C314.254 329.849 314.25 329.829 314.248 329.804C314.245 329.779 314.244 329.749 314.244 329.715C314.244 329.681 314.245 329.651 314.248 329.626C314.25 329.6 314.254 329.581 314.258 329.567C314.262 329.553 314.268 329.546 314.273 329.546C314.279 329.546 314.284 329.553 314.289 329.567C314.293 329.581 314.297 329.6 314.299 329.626C314.302 329.651 314.303 329.681 314.303 329.715C314.303 329.749 314.302 329.779 314.299 329.804C314.297 329.829 314.293 329.849 314.289 329.863C314.284 329.877 314.279 329.884 314.273 329.884ZM314.273 329.839C314.278 329.839 314.281 329.833 314.284 329.822C314.287 329.81 314.289 329.795 314.291 329.776C314.292 329.757 314.293 329.737 314.293 329.715C314.293 329.693 314.292 329.673 314.291 329.654C314.289 329.635 314.287 329.62 314.284 329.608C314.281 329.597 314.278 329.591 314.273 329.591C314.269 329.591 314.265 329.597 314.262 329.608C314.26 329.62 314.257 329.635 314.256 329.654C314.255 329.673 314.254 329.693 314.254 329.715C314.254 329.737 314.255 329.757 314.256 329.776C314.257 329.795 314.26 329.81 314.262 329.822C314.265 329.833 314.269 329.839 314.273 329.839Z" fill="white"/>
<path d="M314.358 329.55V329.597H314.328V329.877H314.318V329.55H314.358Z" fill="white"/>
<path d="M314.382 329.803L314.414 329.55H314.425V329.877H314.415V329.624L314.384 329.877H314.373V329.55H314.382V329.803Z" fill="white"/>
<path d="M314.443 329.877V329.55H314.453V329.692H314.46L314.483 329.55H314.496L314.47 329.708L314.496 329.877H314.484L314.462 329.739H314.453V329.877H314.443Z" fill="white"/>
<path d="M314.526 329.885C314.522 329.885 314.519 329.881 314.515 329.873C314.512 329.865 314.509 329.854 314.507 329.839C314.505 329.824 314.504 329.806 314.504 329.784C314.504 329.766 314.505 329.75 314.506 329.739C314.508 329.727 314.51 329.718 314.512 329.711C314.515 329.704 314.517 329.699 314.52 329.696C314.523 329.693 314.526 329.69 314.529 329.688C314.533 329.685 314.537 329.683 314.539 329.682C314.541 329.681 314.543 329.678 314.544 329.675C314.546 329.672 314.546 329.666 314.546 329.658V329.656C314.546 329.635 314.545 329.619 314.543 329.607C314.54 329.596 314.537 329.59 314.532 329.59C314.528 329.59 314.524 329.595 314.521 329.606C314.519 329.616 314.517 329.627 314.516 329.639L314.506 329.622C314.508 329.602 314.51 329.587 314.513 329.576C314.516 329.565 314.519 329.557 314.522 329.552C314.526 329.548 314.529 329.546 314.532 329.546C314.534 329.546 314.537 329.547 314.539 329.549C314.542 329.552 314.545 329.557 314.547 329.565C314.55 329.572 314.552 329.584 314.554 329.599C314.555 329.615 314.556 329.635 314.556 329.661V329.877H314.546V329.833H314.546C314.545 329.84 314.544 329.848 314.542 329.856C314.541 329.864 314.539 329.871 314.536 329.876C314.533 329.882 314.53 329.885 314.526 329.885ZM314.528 329.84C314.532 329.84 314.535 329.836 314.538 329.828C314.541 329.82 314.543 329.81 314.544 329.798C314.545 329.785 314.546 329.772 314.546 329.759V329.713C314.546 329.715 314.545 329.718 314.543 329.72C314.542 329.722 314.54 329.723 314.538 329.725C314.537 329.726 314.535 329.728 314.533 329.729C314.531 329.73 314.53 329.731 314.529 329.731C314.526 329.733 314.524 329.736 314.522 329.74C314.519 329.743 314.518 329.749 314.516 329.757C314.515 329.764 314.514 329.774 314.514 329.787C314.514 329.804 314.516 329.818 314.518 329.826C314.521 329.835 314.524 329.84 314.528 329.84Z" fill="white"/>
<path d="M314.618 329.803L314.649 329.55H314.66V329.877H314.65V329.624L314.619 329.877H314.608V329.55H314.618V329.803Z" fill="white"/>
<path d="M314.748 329.809L314.77 329.55H314.78L314.752 329.877H314.744L314.716 329.55H314.725L314.748 329.809ZM314.722 329.55V329.877H314.712V329.55H314.722ZM314.773 329.877V329.55H314.783V329.877H314.773Z" fill="white"/>
<path d="M314.828 329.884C314.822 329.884 314.817 329.877 314.812 329.863C314.808 329.849 314.804 329.829 314.802 329.804C314.799 329.779 314.798 329.749 314.798 329.715C314.798 329.681 314.799 329.651 314.802 329.626C314.804 329.6 314.808 329.581 314.812 329.567C314.817 329.553 314.822 329.546 314.828 329.546C314.833 329.546 314.839 329.553 314.843 329.567C314.847 329.581 314.851 329.6 314.853 329.626C314.856 329.651 314.857 329.681 314.857 329.715C314.857 329.749 314.856 329.779 314.853 329.804C314.851 329.829 314.847 329.849 314.843 329.863C314.839 329.877 314.833 329.884 314.828 329.884ZM314.828 329.839C314.832 329.839 314.836 329.833 314.839 329.822C314.841 329.81 314.844 329.795 314.845 329.776C314.846 329.757 314.847 329.737 314.847 329.715C314.847 329.693 314.846 329.673 314.845 329.654C314.844 329.635 314.841 329.62 314.839 329.608C314.836 329.597 314.832 329.591 314.828 329.591C314.823 329.591 314.82 329.597 314.817 329.608C314.814 329.62 314.812 329.635 314.81 329.654C314.809 329.673 314.808 329.693 314.808 329.715C314.808 329.737 314.809 329.757 314.81 329.776C314.812 329.795 314.814 329.81 314.817 329.822C314.82 329.833 314.823 329.839 314.828 329.839Z" fill="white"/>
<path d="M314.961 329.83L314.96 329.971H314.949V329.877H314.941V329.83H314.961ZM314.872 329.55H314.882V329.83H314.907V329.55H314.917V329.83H314.941V329.55H314.951V329.877H314.872V329.55Z" fill="white"/>
<path d="M315.019 329.69V329.737H314.983V329.69H315.019ZM314.985 329.55V329.877H314.975V329.55H314.985ZM315.026 329.55V329.877H315.016V329.55H315.026Z" fill="white"/>
<path d="M315.071 329.884C315.065 329.884 315.06 329.877 315.055 329.863C315.051 329.849 315.047 329.829 315.045 329.804C315.043 329.779 315.041 329.749 315.041 329.715C315.041 329.681 315.043 329.651 315.045 329.626C315.047 329.6 315.051 329.581 315.055 329.567C315.06 329.553 315.065 329.546 315.071 329.546C315.077 329.546 315.082 329.553 315.086 329.567C315.09 329.581 315.094 329.6 315.096 329.626C315.099 329.651 315.1 329.681 315.1 329.715C315.1 329.749 315.099 329.779 315.096 329.804C315.094 329.829 315.09 329.849 315.086 329.863C315.082 329.877 315.077 329.884 315.071 329.884ZM315.071 329.839C315.075 329.839 315.079 329.833 315.082 329.822C315.085 329.81 315.087 329.795 315.088 329.776C315.089 329.757 315.09 329.737 315.09 329.715C315.09 329.693 315.089 329.673 315.088 329.654C315.087 329.635 315.085 329.62 315.082 329.608C315.079 329.597 315.075 329.591 315.071 329.591C315.066 329.591 315.063 329.597 315.06 329.608C315.057 329.62 315.055 329.635 315.053 329.654C315.052 329.673 315.051 329.693 315.051 329.715C315.051 329.737 315.052 329.757 315.053 329.776C315.055 329.795 315.057 329.81 315.06 329.822C315.063 329.833 315.066 329.839 315.071 329.839Z" fill="white"/>
<path d="M315.142 329.884C315.136 329.884 315.13 329.877 315.126 329.862C315.122 329.848 315.118 329.828 315.116 329.802C315.113 329.777 315.112 329.748 315.112 329.715C315.112 329.682 315.113 329.653 315.116 329.627C315.118 329.602 315.122 329.582 315.126 329.567C315.131 329.553 315.136 329.546 315.141 329.546C315.146 329.546 315.15 329.55 315.154 329.558C315.157 329.567 315.16 329.579 315.163 329.594C315.165 329.609 315.167 329.627 315.167 329.648H315.157C315.156 329.633 315.155 329.62 315.152 329.608C315.15 329.597 315.146 329.591 315.142 329.591C315.138 329.591 315.134 329.596 315.131 329.606C315.129 329.616 315.126 329.63 315.125 329.649C315.123 329.667 315.122 329.689 315.122 329.714C315.122 329.739 315.123 329.761 315.125 329.78C315.126 329.798 315.128 329.813 315.131 329.823C315.134 329.834 315.138 329.839 315.142 329.839C315.144 329.839 315.147 329.837 315.149 329.832C315.151 329.827 315.153 329.821 315.154 329.812C315.156 329.804 315.157 329.794 315.157 329.782H315.167C315.167 329.801 315.165 329.818 315.163 329.834C315.161 329.849 315.158 329.862 315.154 329.871C315.151 329.88 315.146 329.884 315.142 329.884Z" fill="white"/>
<path d="M315.177 329.597V329.55H315.229V329.597H315.208V329.877H315.198V329.597H315.177Z" fill="white"/>
<path d="M315.252 329.668H315.271C315.279 329.668 315.284 329.678 315.288 329.698C315.292 329.717 315.294 329.742 315.294 329.771C315.294 329.791 315.294 329.809 315.292 329.825C315.29 329.841 315.287 329.854 315.284 329.863C315.28 329.873 315.276 329.877 315.271 329.877H315.244V329.55H315.254V329.83H315.271C315.275 329.83 315.278 329.825 315.281 329.815C315.283 329.804 315.285 329.791 315.285 329.774C315.285 329.757 315.283 329.743 315.281 329.732C315.278 329.721 315.275 329.715 315.271 329.715H315.252V329.668Z" fill="white"/>
<path d="M315.343 329.877V329.55H315.37C315.377 329.55 315.382 329.558 315.386 329.574C315.39 329.59 315.392 329.611 315.392 329.637C315.392 329.657 315.391 329.672 315.389 329.683C315.387 329.694 315.384 329.701 315.38 329.705C315.382 329.707 315.385 329.711 315.387 329.718C315.389 329.725 315.391 329.734 315.393 329.746C315.394 329.758 315.395 329.772 315.395 329.789C315.395 329.806 315.394 329.821 315.392 329.834C315.391 329.848 315.388 329.858 315.385 329.866C315.382 329.873 315.378 329.877 315.374 329.877H315.343ZM315.353 329.831H315.374C315.377 329.831 315.38 329.827 315.382 329.819C315.384 329.811 315.385 329.799 315.385 329.785C315.385 329.768 315.384 329.755 315.382 329.745C315.38 329.735 315.377 329.731 315.374 329.731H315.353V329.831ZM315.353 329.687H315.37C315.372 329.687 315.375 329.685 315.376 329.682C315.378 329.678 315.38 329.672 315.381 329.665C315.382 329.658 315.382 329.65 315.382 329.64C315.382 329.626 315.381 329.616 315.379 329.608C315.377 329.6 315.374 329.596 315.37 329.596H315.353V329.687Z" fill="white"/>
<path d="M315.453 329.69V329.737H315.417V329.69H315.453ZM315.42 329.55V329.877H315.41V329.55H315.42ZM315.461 329.55V329.877H315.451V329.55H315.461Z" fill="white"/>
<path d="M315.483 330C315.481 330 315.48 329.999 315.479 329.998C315.477 329.997 315.476 329.995 315.476 329.994L315.478 329.95C315.481 329.953 315.483 329.954 315.485 329.953C315.487 329.952 315.488 329.948 315.49 329.941C315.491 329.933 315.493 329.921 315.494 329.905L315.496 329.879L315.472 329.55H315.482L315.5 329.811H315.501L315.519 329.55H315.53L315.502 329.925C315.501 329.942 315.499 329.956 315.498 329.967C315.496 329.978 315.494 329.986 315.491 329.992C315.489 329.997 315.486 330 315.483 330Z" fill="white"/>
<path d="M315.539 329.597V329.55H315.592V329.597H315.571V329.877H315.561V329.597H315.539Z" fill="white"/>
<path d="M315.606 330V329.55H315.616V329.602H315.617C315.618 329.596 315.619 329.589 315.62 329.58C315.622 329.571 315.623 329.563 315.626 329.556C315.628 329.549 315.632 329.546 315.636 329.546C315.641 329.546 315.646 329.552 315.65 329.566C315.655 329.58 315.658 329.6 315.66 329.625C315.662 329.65 315.664 329.68 315.664 329.714C315.664 329.749 315.662 329.779 315.66 329.805C315.658 329.83 315.655 329.849 315.65 329.863C315.646 329.877 315.642 329.884 315.636 329.884C315.632 329.884 315.629 329.881 315.626 329.874C315.624 329.866 315.622 329.858 315.62 329.85C315.619 329.84 315.618 329.833 315.617 329.827H315.616V330H315.606ZM315.616 329.714C315.616 329.738 315.617 329.76 315.618 329.779C315.62 329.798 315.622 329.812 315.625 329.823C315.627 329.834 315.631 329.839 315.635 329.839C315.639 329.839 315.642 329.833 315.645 329.822C315.648 329.811 315.65 329.796 315.652 329.777C315.653 329.758 315.654 329.737 315.654 329.714C315.654 329.69 315.653 329.67 315.652 329.651C315.65 329.633 315.648 329.618 315.645 329.607C315.642 329.596 315.639 329.591 315.635 329.591C315.631 329.591 315.627 329.596 315.625 329.606C315.622 329.617 315.62 329.631 315.618 329.649C315.617 329.668 315.616 329.689 315.616 329.714Z" fill="white"/>
<path d="M315.689 329.803L315.72 329.55H315.732V329.877H315.722V329.624L315.69 329.877H315.679V329.55H315.689V329.803Z" fill="white"/>
</svg>
